<?xml version="1.0" encoding="utf-8"?>
<svg xmlns="http://www.w3.org/2000/svg" height="512pt" version="1.1" viewBox="0 0 512 512" width="512pt">
<path d="M 0.00 0.00 L 512.00 0.00 L 512.00 512.00 L 0.00 512.00 L 0.00 494.24 C 3.59 496.84 7.63 498.68 11.70 500.40 C 15.40 501.96 18.79 504.30 22.67 505.43 C 28.56 506.21 34.53 505.73 40.46 505.85 C 67.02 505.63 93.59 505.91 120.15 505.81 C 128.00 506.20 135.86 506.11 143.71 505.70 C 148.47 506.04 153.24 506.16 158.01 506.00 C 212.11 505.79 266.22 506.19 320.32 505.78 C 324.87 505.78 329.43 505.96 333.98 505.68 C 335.53 497.88 333.98 490.05 333.21 482.28 C 335.12 482.39 337.06 482.41 338.96 482.75 C 361.64 488.69 384.80 492.58 407.57 498.14 C 417.60 500.58 427.87 501.90 437.87 504.51 C 445.41 506.49 453.29 505.58 461.00 505.78 C 466.59 505.57 472.61 506.60 477.72 503.75 C 485.56 499.47 494.38 495.68 499.29 487.79 C 499.50 488.30 499.92 489.31 500.13 489.82 C 504.80 483.58 506.28 475.64 505.67 467.99 C 505.56 364.00 505.66 260.00 505.62 156.00 C 505.57 146.67 506.64 136.88 502.70 128.11 C 499.89 122.12 495.40 116.88 490.02 113.06 C 482.16 108.38 472.86 106.81 463.82 106.75 C 453.79 104.73 444.03 101.52 433.91 99.91 C 421.59 97.99 409.56 94.59 397.29 92.37 C 388.85 90.36 380.48 88.05 371.90 86.71 C 356.21 82.68 340.18 80.12 324.45 76.29 C 311.34 72.63 297.59 71.52 284.73 66.96 C 279.98 65.75 275.02 65.66 270.24 64.56 C 250.85 59.73 231.29 55.58 211.67 51.85 C 205.43 50.48 199.32 48.51 192.97 47.72 C 187.95 47.10 183.00 46.05 178.19 44.53 C 168.79 41.65 159.09 40.00 149.46 38.11 C 140.06 35.84 130.55 34.08 121.19 31.68 C 107.52 29.33 94.09 25.81 80.47 23.21 C 73.95 22.05 67.67 19.47 60.99 19.38 C 56.22 19.30 52.05 21.90 47.95 23.99 C 41.12 26.47 34.54 29.57 27.63 31.83 C 18.06 35.19 11.51 44.91 11.45 54.97 C 11.44 160.98 11.42 266.99 11.43 373.00 C 11.57 380.24 10.49 387.84 13.42 394.70 C 16.81 403.02 22.62 411.42 31.66 414.09 C 46.71 418.84 62.39 421.14 77.69 424.97 C 88.02 426.40 97.93 429.73 108.17 431.59 C 114.90 432.92 121.50 435.18 128.45 435.07 C 132.79 435.96 137.10 437.07 141.47 437.81 C 143.45 439.24 145.63 440.41 148.08 440.76 C 160.76 443.22 173.31 446.25 185.94 448.93 C 190.34 449.84 194.68 450.95 198.97 452.28 C 198.66 458.48 197.69 464.71 195.65 470.58 C 194.50 473.77 190.86 474.44 188.03 475.40 C 184.11 471.18 180.25 466.75 175.27 463.74 C 169.72 460.09 163.09 458.85 156.73 457.40 C 142.68 454.09 128.55 451.14 114.57 447.54 C 98.17 444.21 82.00 439.85 65.60 436.51 C 49.55 433.25 33.66 429.25 17.76 425.35 C 11.93 423.68 5.98 422.47 0.00 421.49 L 0.00 0.00 Z" fill="transparent" opacity="1.00" stroke="transparent" stroke-width="0.25"/>
<path d="M 47.95 23.99 C 52.05 21.90 56.22 19.30 60.99 19.38 C 67.67 19.47 73.95 22.05 80.47 23.21 C 94.09 25.81 107.52 29.33 121.19 31.68 C 130.55 34.08 140.06 35.84 149.46 38.11 C 159.09 40.00 168.79 41.65 178.19 44.53 C 183.00 46.05 187.95 47.10 192.97 47.72 C 199.32 48.51 205.43 50.48 211.67 51.85 C 231.29 55.58 250.85 59.73 270.24 64.56 C 275.02 65.66 279.98 65.75 284.73 66.96 C 297.59 71.52 311.34 72.63 324.45 76.29 C 340.18 80.12 356.21 82.68 371.90 86.71 C 380.48 88.05 388.85 90.36 397.29 92.37 C 409.56 94.59 421.59 97.99 433.91 99.91 C 444.03 101.52 453.79 104.73 463.82 106.75 C 471.24 108.80 479.37 109.10 486.01 113.37 C 470.80 110.20 455.71 106.46 440.52 103.22 C 402.67 95.28 364.97 86.63 327.13 78.66 C 315.94 76.06 304.61 74.13 293.47 71.33 C 269.56 65.37 245.24 61.26 221.28 55.50 C 212.79 53.81 204.45 51.36 195.91 49.92 C 184.90 48.03 174.07 45.30 163.23 42.69 C 131.44 35.78 99.63 28.95 67.87 21.90 C 64.07 21.01 59.97 20.60 56.25 22.06 C 48.27 24.90 41.44 30.43 32.99 32.02 C 38.05 29.49 43.27 27.22 47.95 23.99 Z" fill="#8698a6" opacity="1.00" stroke="#8698a6" stroke-width="0.25"/>
<path d="M 56.25 22.06 C 59.97 20.60 64.07 21.01 67.87 21.90 C 99.63 28.95 131.44 35.78 163.23 42.69 C 174.07 45.30 184.90 48.03 195.91 49.92 C 204.45 51.36 212.79 53.81 221.28 55.50 C 245.24 61.26 269.56 65.37 293.47 71.33 C 304.61 74.13 315.94 76.06 327.13 78.66 C 364.97 86.63 402.67 95.28 440.52 103.22 C 455.71 106.46 470.80 110.20 486.01 113.37 C 495.73 119.36 502.60 130.37 502.49 141.95 C 502.39 245.30 502.57 348.65 502.37 452.00 C 502.30 461.37 502.85 470.79 501.59 480.11 C 501.55 482.85 500.78 485.49 499.29 487.79 C 494.38 495.68 485.56 499.47 477.72 503.75 C 472.61 506.60 466.59 505.57 461.00 505.78 C 453.29 505.58 445.41 506.49 437.87 504.51 C 427.87 501.90 417.60 500.58 407.57 498.14 C 384.80 492.58 361.64 488.69 338.96 482.75 C 337.06 482.41 335.12 482.39 333.21 482.28 C 333.98 490.05 335.53 497.88 333.98 505.68 C 329.43 505.96 324.87 505.78 320.32 505.78 C 321.22 498.20 320.72 490.55 320.53 482.94 C 320.29 480.88 320.63 477.72 318.12 477.00 C 312.51 474.93 306.33 475.65 300.63 473.88 C 290.58 470.81 280.31 468.49 269.95 466.74 C 256.10 463.12 241.90 460.98 228.17 456.92 C 222.47 455.31 216.49 455.50 210.68 454.63 C 211.75 453.63 212.82 452.64 213.86 451.62 C 210.07 452.26 207.70 455.52 204.71 457.59 C 203.87 455.21 203.05 452.64 200.80 451.21 C 195.73 449.00 190.21 448.23 184.85 446.98 C 170.37 444.04 156.10 439.95 141.47 437.81 C 137.10 437.07 132.79 435.96 128.45 435.07 C 123.36 432.28 117.47 432.14 111.95 430.78 C 101.90 428.27 91.75 426.16 81.74 423.51 C 70.51 421.33 59.30 419.02 48.24 416.08 C 40.36 414.15 31.82 412.98 25.30 407.75 C 19.87 403.00 16.12 396.42 14.52 389.41 C 18.88 382.53 15.07 374.50 16.22 367.05 C 17.20 360.61 16.35 353.62 19.74 347.78 C 21.41 344.87 22.00 341.55 22.26 338.25 C 20.97 339.14 19.70 340.06 18.41 340.96 C 16.42 335.82 17.63 328.99 23.19 326.71 C 23.13 333.67 24.07 340.73 22.54 347.59 C 22.24 349.33 21.68 351.07 21.74 352.86 C 22.75 354.98 24.10 357.07 23.81 359.54 C 24.02 359.57 24.43 359.62 24.64 359.65 L 25.38 359.84 C 23.77 365.08 24.49 370.61 24.36 376.00 C 24.46 380.32 23.99 384.71 24.80 388.99 C 25.99 392.79 27.97 396.40 30.60 399.39 C 35.98 403.98 43.22 405.27 50.03 406.11 C 58.73 407.99 67.19 410.96 75.99 412.39 C 80.39 412.99 84.91 413.29 89.09 414.93 C 95.05 417.22 101.52 417.33 107.69 418.72 C 113.82 420.07 119.77 422.17 125.99 423.15 C 131.94 424.08 137.67 426.24 143.73 426.50 C 142.94 426.81 142.15 427.15 141.37 427.50 C 151.57 428.47 161.53 431.05 171.44 433.60 C 179.89 435.87 188.68 436.54 197.09 439.04 C 205.19 441.34 213.43 443.01 221.68 444.67 C 228.93 446.71 236.51 447.21 243.73 449.37 C 248.88 452.00 254.65 452.72 260.22 454.03 C 269.36 456.65 278.67 458.68 288.03 460.37 C 294.22 460.85 299.82 463.85 305.96 464.61 C 312.55 465.47 318.84 467.76 325.36 468.96 C 335.00 470.75 344.53 473.06 354.06 475.34 C 365.87 478.94 378.26 480.08 390.02 483.86 C 403.03 487.06 416.20 489.55 429.22 492.72 C 437.38 494.80 445.59 497.08 454.03 497.65 C 459.10 497.96 465.33 496.92 467.93 491.98 C 471.01 485.80 469.92 478.66 470.32 472.00 C 470.31 467.65 471.30 462.91 469.12 458.91 C 467.68 457.79 465.81 457.52 464.11 457.05 C 452.65 454.50 441.30 451.45 429.73 449.45 C 416.93 445.89 403.80 443.69 390.97 440.27 C 379.03 437.29 366.65 436.27 354.97 432.27 C 342.45 429.40 329.83 426.94 317.38 423.76 C 301.11 420.85 285.28 415.95 268.99 413.16 C 261.85 411.97 254.99 409.55 247.85 408.46 C 241.14 407.48 234.71 405.28 228.06 404.03 C 221.84 402.81 215.68 401.33 209.60 399.55 C 201.34 397.51 192.88 396.37 184.59 394.44 C 179.64 393.11 174.80 391.35 169.72 390.55 C 152.00 387.52 134.71 382.48 117.06 379.07 C 108.97 377.62 101.19 374.76 93.00 373.83 C 82.22 372.65 72.08 368.48 61.40 366.77 C 49.92 364.83 38.81 361.28 27.61 358.18 C 27.26 357.21 26.91 356.25 26.56 355.29 C 30.43 353.56 37.22 353.17 37.32 347.70 C 37.12 339.77 38.22 331.83 37.23 323.92 C 36.32 314.97 37.22 305.97 36.89 297.00 C 36.61 265.66 37.12 234.33 37.37 202.99 C 37.54 194.60 36.64 186.23 35.56 177.92 C 35.98 154.28 35.72 130.64 35.84 107.00 C 35.36 91.52 36.16 76.05 36.63 60.58 C 43.83 58.55 51.02 61.33 58.13 62.34 C 58.03 62.79 57.93 63.24 57.84 63.70 C 61.84 64.01 65.84 64.44 69.74 65.46 C 84.08 69.23 98.96 70.58 113.24 74.63 C 122.74 76.89 132.26 79.08 141.93 80.46 C 151.80 83.03 161.84 84.86 171.89 86.55 C 170.60 86.90 169.32 87.26 168.05 87.61 C 181.76 87.11 194.19 94.56 207.87 94.38 C 206.94 94.81 206.01 95.24 205.09 95.68 C 209.14 95.87 213.19 96.15 217.24 96.23 C 217.08 96.71 216.93 97.19 216.78 97.67 C 225.58 98.90 234.09 101.76 243.03 102.13 C 242.98 102.67 242.93 103.22 242.88 103.76 C 246.52 103.88 250.20 104.07 253.72 105.08 C 261.03 107.25 268.61 108.26 275.97 110.20 C 280.43 111.42 284.99 112.22 289.60 112.47 C 288.19 112.86 286.76 113.16 285.35 113.56 C 296.55 113.57 307.27 117.11 318.05 119.64 C 324.51 120.49 330.71 122.61 337.18 123.42 C 337.05 123.86 336.92 124.30 336.80 124.74 C 339.19 125.11 341.59 125.47 343.99 125.82 C 346.66 126.55 349.33 127.34 352.06 127.82 C 365.44 130.05 378.61 133.36 391.88 136.09 C 407.05 138.70 421.69 143.77 436.96 145.88 C 442.62 146.88 449.06 147.33 453.34 151.66 C 456.62 154.84 456.34 159.78 456.40 163.99 C 456.03 173.00 457.70 182.00 456.51 191.00 C 456.18 207.99 456.51 225.00 456.37 242.00 C 456.11 250.66 457.27 259.31 456.46 267.97 C 456.31 292.98 456.39 318.01 456.40 343.03 C 456.56 351.14 455.97 359.27 456.83 367.36 C 457.50 373.61 456.15 379.86 456.62 386.12 C 457.70 402.39 456.95 418.70 457.09 434.99 C 457.18 438.72 456.68 442.60 457.82 446.23 C 461.25 448.68 465.78 447.80 469.74 447.83 C 470.17 443.23 470.30 438.61 470.05 434.00 C 469.03 397.33 470.91 360.66 469.94 324.00 C 469.96 318.66 470.42 313.33 470.14 308.00 C 469.46 295.01 469.56 281.99 470.04 269.00 C 469.01 240.34 470.28 211.66 469.74 183.00 C 469.35 172.96 471.11 162.83 469.09 152.88 C 468.30 148.96 467.56 144.92 465.61 141.38 C 463.53 138.13 459.55 137.00 456.06 135.98 C 448.21 134.10 440.29 132.49 432.42 130.63 C 417.17 126.90 401.66 124.34 386.39 120.69 C 378.30 118.32 369.94 117.18 361.72 115.42 C 354.73 113.98 348.00 111.45 340.94 110.35 C 332.81 109.05 324.77 107.29 316.79 105.34 C 300.71 101.68 284.40 99.04 268.49 94.64 C 260.66 92.41 252.47 91.84 244.72 89.36 C 238.28 87.34 231.53 86.70 224.99 85.11 C 215.97 82.96 206.73 81.82 197.77 79.38 C 189.09 76.97 180.14 75.85 171.40 73.74 C 162.35 71.93 153.52 69.15 144.41 67.67 C 136.17 66.31 128.18 63.80 120.00 62.18 C 110.89 60.33 101.79 58.39 92.73 56.30 C 82.72 53.65 72.37 52.52 62.38 49.74 C 54.24 47.42 45.88 45.98 37.55 44.54 C 32.57 43.52 26.78 45.85 24.69 50.66 C 23.67 58.67 24.69 66.77 23.92 74.79 L 23.18 75.70 C 20.74 68.59 22.59 61.05 21.62 53.74 C 19.12 53.83 16.62 53.88 14.11 53.90 C 14.93 47.70 17.66 41.54 22.66 37.61 C 25.75 35.17 29.39 33.57 32.99 32.02 C 41.44 30.43 48.27 24.90 56.25 22.06 Z" fill="#18354e" opacity="1.00" stroke="#18354e" stroke-width="0.25"/>
<path d="M 27.63 31.83 C 34.54 29.57 41.12 26.47 47.95 23.99 C 43.27 27.22 38.05 29.49 32.99 32.02 C 29.39 33.57 25.75 35.17 22.66 37.61 C 17.66 41.54 14.93 47.70 14.11 53.90 C 13.17 60.22 13.69 66.64 13.61 73.00 C 13.58 172.33 13.55 271.67 13.56 371.00 C 13.62 377.14 13.06 383.38 14.52 389.41 C 16.12 396.42 19.87 403.00 25.30 407.75 C 31.82 412.98 40.36 414.15 48.24 416.08 C 59.30 419.02 70.51 421.33 81.74 423.51 C 91.75 426.16 101.90 428.27 111.95 430.78 C 117.47 432.14 123.36 432.28 128.45 435.07 C 121.50 435.18 114.90 432.92 108.17 431.59 C 97.93 429.73 88.02 426.40 77.69 424.97 C 62.39 421.14 46.71 418.84 31.66 414.09 C 22.62 411.42 16.81 403.02 13.42 394.70 C 10.49 387.84 11.57 380.24 11.43 373.00 C 11.42 266.99 11.44 160.98 11.45 54.97 C 11.51 44.91 18.06 35.19 27.63 31.83 Z" fill="#90a0af" opacity="1.00" stroke="#90a0af" stroke-width="0.25"/>
<path d="M 49.94 36.94 C 51.39 33.67 54.88 32.48 58.19 32.08 C 57.68 32.42 56.66 33.10 56.15 33.44 C 61.76 40.59 71.67 39.88 79.62 42.16 C 90.98 45.37 102.65 47.14 114.12 49.86 C 126.07 52.03 137.83 55.09 149.73 57.51 C 163.02 60.96 176.58 63.16 189.98 66.11 C 201.50 67.83 212.73 70.98 224.19 73.03 C 239.91 76.81 255.60 80.80 271.50 83.77 C 303.04 91.39 334.93 97.38 366.53 104.71 C 376.87 107.24 387.27 109.65 397.76 111.46 C 397.50 111.70 396.97 112.16 396.71 112.40 C 391.06 112.69 385.49 111.17 380.03 109.85 C 353.47 103.95 326.94 97.86 300.26 92.50 C 291.22 90.50 282.26 88.11 273.11 86.67 C 260.94 83.87 248.75 81.18 236.63 78.18 C 215.97 73.98 195.43 69.26 174.77 65.04 C 159.61 62.25 144.67 58.50 129.60 55.29 C 105.87 50.49 82.44 44.36 58.78 39.24 C 55.77 38.70 52.79 38.03 49.94 36.94 Z" fill="#6e879c" opacity="1.00" stroke="#6e879c" stroke-width="0.25"/>
<path d="M 58.19 32.08 C 59.55 31.14 61.33 31.48 62.88 31.61 C 72.33 33.36 81.58 36.04 91.05 37.64 C 95.77 38.39 100.25 40.15 104.97 40.85 C 113.56 41.86 121.62 45.26 130.15 46.54 C 134.54 47.12 138.56 49.26 142.98 49.64 C 148.08 50.26 152.95 51.95 158.01 52.73 C 163.44 53.50 168.54 55.68 174.02 56.15 C 180.87 56.64 187.19 59.64 194.02 60.25 C 197.81 60.42 201.14 62.61 204.95 62.64 C 214.71 63.98 224.09 67.20 233.84 68.60 C 241.90 71.27 250.33 72.40 258.66 73.88 C 268.20 76.93 278.16 78.32 287.83 80.96 C 295.52 83.19 303.65 83.32 311.27 85.84 C 322.17 89.31 333.65 90.19 344.67 93.15 C 351.18 95.03 358.07 95.19 364.52 97.34 C 372.78 99.93 381.39 101.06 389.73 103.37 C 397.70 105.48 406.06 105.76 413.93 108.32 C 418.51 109.78 423.20 110.98 428.01 111.39 C 432.59 111.60 436.77 113.74 441.29 114.31 C 446.57 114.95 451.63 116.58 456.74 117.99 C 461.52 118.98 466.36 119.72 471.07 121.05 C 475.53 122.27 480.69 122.37 484.12 125.91 C 490.53 130.84 491.14 139.57 491.59 147.00 C 491.52 256.67 491.62 366.34 491.56 476.01 C 491.53 478.85 491.53 482.22 489.13 484.21 C 487.01 486.09 485.07 488.18 482.82 489.91 C 482.00 490.23 481.19 490.53 480.37 490.83 C 482.83 480.70 481.37 470.28 481.61 459.99 C 481.84 445.76 481.30 431.51 481.93 417.28 C 482.84 411.22 484.16 404.99 487.78 399.92 C 488.40 399.31 489.24 399.02 490.00 398.62 C 490.17 395.05 490.11 391.48 489.93 387.92 C 489.38 389.21 488.85 390.51 488.33 391.81 C 486.54 385.99 484.48 380.26 481.79 374.80 C 481.73 357.25 481.65 339.68 482.32 322.14 C 481.22 302.78 481.74 283.38 481.80 264.00 C 481.43 253.99 482.33 243.99 481.95 233.98 C 482.41 206.70 482.81 179.39 481.47 152.13 C 480.72 144.82 478.89 136.86 473.05 131.88 C 469.41 128.38 464.71 126.25 459.85 125.10 C 450.18 122.69 440.44 120.58 430.71 118.44 C 424.18 117.13 417.74 115.27 411.07 114.83 C 406.22 114.48 401.40 113.70 396.71 112.40 C 396.97 112.16 397.50 111.70 397.76 111.46 C 387.27 109.65 376.87 107.24 366.53 104.71 C 334.93 97.38 303.04 91.39 271.50 83.77 C 255.60 80.80 239.91 76.81 224.19 73.03 C 212.73 70.98 201.50 67.83 189.98 66.11 C 176.58 63.16 163.02 60.96 149.73 57.51 C 137.83 55.09 126.07 52.03 114.12 49.86 C 102.65 47.14 90.98 45.37 79.62 42.16 C 71.67 39.88 61.76 40.59 56.15 33.44 C 56.66 33.10 57.68 32.42 58.19 32.08 Z" fill="#c2d3e0" opacity="1.00" stroke="#c2d3e0" stroke-width="0.25"/>
<path d="M 24.69 50.66 C 26.78 45.85 32.57 43.52 37.55 44.54 C 45.88 45.98 54.24 47.42 62.38 49.74 C 72.37 52.52 82.72 53.65 92.73 56.30 C 101.79 58.39 110.89 60.33 120.00 62.18 C 128.18 63.80 136.17 66.31 144.41 67.67 C 153.52 69.15 162.35 71.93 171.40 73.74 C 180.14 75.85 189.09 76.97 197.77 79.38 C 206.73 81.82 215.97 82.96 224.99 85.11 C 231.53 86.70 238.28 87.34 244.72 89.36 C 252.47 91.84 260.66 92.41 268.49 94.64 C 284.40 99.04 300.71 101.68 316.79 105.34 C 324.77 107.29 332.81 109.05 340.94 110.35 C 348.00 111.45 354.73 113.98 361.72 115.42 C 369.94 117.18 378.30 118.32 386.39 120.69 C 401.66 124.34 417.17 126.90 432.42 130.63 C 440.29 132.49 448.21 134.10 456.06 135.98 C 459.55 137.00 463.53 138.13 465.61 141.38 C 467.56 144.92 468.30 148.96 469.09 152.88 C 471.11 162.83 469.35 172.96 469.74 183.00 C 470.28 211.66 469.01 240.34 470.04 269.00 C 469.56 281.99 469.46 295.01 470.14 308.00 C 470.42 313.33 469.96 318.66 469.94 324.00 C 470.91 360.66 469.03 397.33 470.05 434.00 C 470.30 438.61 470.17 443.23 469.74 447.83 C 465.78 447.80 461.25 448.68 457.82 446.23 C 456.68 442.60 457.18 438.72 457.09 434.99 C 456.95 418.70 457.70 402.39 456.62 386.12 C 456.15 379.86 457.50 373.61 456.83 367.36 C 455.97 359.27 456.56 351.14 456.40 343.03 C 456.39 318.01 456.31 292.98 456.46 267.97 C 457.27 259.31 456.11 250.66 456.37 242.00 C 456.51 225.00 456.18 207.99 456.51 191.00 C 457.70 182.00 456.03 173.00 456.40 163.99 C 456.34 159.78 456.62 154.84 453.34 151.66 C 449.06 147.33 442.62 146.88 436.96 145.88 C 421.69 143.77 407.05 138.70 391.88 136.09 C 378.61 133.36 365.44 130.05 352.06 127.82 C 349.33 127.34 346.66 126.55 343.99 125.82 C 360.24 126.02 375.55 132.06 391.43 134.62 C 410.02 137.81 428.25 142.67 446.76 146.21 C 451.83 146.86 456.40 150.47 457.47 155.59 C 459.08 163.30 457.78 171.22 458.00 179.02 C 458.69 209.68 457.88 240.35 458.20 271.01 C 458.52 285.67 457.77 300.34 457.89 315.00 C 458.54 324.99 458.07 335.00 458.28 345.00 C 458.16 357.67 458.42 370.35 457.97 383.02 C 457.95 399.02 458.01 415.01 457.74 431.01 C 457.86 435.41 457.36 440.00 458.79 444.23 C 460.89 447.02 464.81 445.22 467.58 444.67 C 469.03 436.18 467.96 427.56 468.11 419.00 C 468.44 401.28 466.41 383.59 467.65 365.88 C 468.33 336.26 467.72 306.63 467.99 277.00 C 467.84 262.39 468.34 247.76 467.47 233.17 C 467.21 225.78 467.39 218.39 467.28 211.00 C 467.15 203.31 468.46 195.68 468.29 187.99 C 468.17 179.99 468.29 171.98 468.11 163.98 C 468.02 157.58 466.44 151.34 464.81 145.20 C 464.15 143.15 463.67 140.56 461.39 139.72 C 454.85 136.90 447.66 136.17 440.81 134.38 C 424.31 130.26 407.78 126.32 391.09 123.05 C 383.89 121.77 376.96 119.33 369.73 118.18 C 359.00 116.39 348.65 112.85 337.91 111.10 C 330.19 109.76 322.49 108.29 314.93 106.21 C 292.01 100.86 268.66 97.38 245.92 91.24 C 239.33 89.50 232.71 88.00 225.97 86.98 C 215.14 84.13 203.97 82.76 193.15 79.85 C 188.33 78.57 183.51 77.31 178.58 76.53 C 165.02 74.35 151.98 69.81 138.41 67.66 C 132.11 66.74 126.04 64.79 119.85 63.40 C 106.01 60.75 92.26 57.71 78.57 54.40 C 65.23 52.29 52.31 48.14 38.97 46.07 C 33.68 45.05 29.03 48.14 24.69 50.66 Z" fill="#4c687d" opacity="1.00" stroke="#4c687d" stroke-width="0.25"/>
<path d="M 24.69 50.66 C 29.03 48.14 33.68 45.05 38.97 46.07 C 52.31 48.14 65.23 52.29 78.57 54.40 C 92.26 57.71 106.01 60.75 119.85 63.40 C 126.04 64.79 132.11 66.74 138.41 67.66 C 151.98 69.81 165.02 74.35 178.58 76.53 C 183.51 77.31 188.33 78.57 193.15 79.85 C 203.97 82.76 215.14 84.13 225.97 86.98 C 232.71 88.00 239.33 89.50 245.92 91.24 C 268.66 97.38 292.01 100.86 314.93 106.21 C 322.49 108.29 330.19 109.76 337.91 111.10 C 348.65 112.85 359.00 116.39 369.73 118.18 C 376.96 119.33 383.89 121.77 391.09 123.05 C 407.78 126.32 424.31 130.26 440.81 134.38 C 447.66 136.17 454.85 136.90 461.39 139.72 C 463.67 140.56 464.15 143.15 464.81 145.20 C 466.44 151.34 468.02 157.58 468.11 163.98 C 468.29 171.98 468.17 179.99 468.29 187.99 C 468.46 195.68 467.15 203.31 467.28 211.00 C 467.39 218.39 467.21 225.78 467.47 233.17 C 468.34 247.76 467.84 262.39 467.99 277.00 C 467.72 306.63 468.33 336.26 467.65 365.88 C 466.41 383.59 468.44 401.28 468.11 419.00 C 467.96 427.56 469.03 436.18 467.58 444.67 C 464.81 445.22 460.89 447.02 458.79 444.23 C 457.36 440.00 457.86 435.41 457.74 431.01 C 458.01 415.01 457.95 399.02 457.97 383.02 C 458.42 370.35 458.16 357.67 458.28 345.00 C 458.07 335.00 458.54 324.99 457.89 315.00 C 457.77 300.34 458.52 285.67 458.20 271.01 C 457.88 240.35 458.69 209.68 458.00 179.02 C 457.78 171.22 459.08 163.30 457.47 155.59 C 456.40 150.47 451.83 146.86 446.76 146.21 C 428.25 142.67 410.02 137.81 391.43 134.62 C 375.55 132.06 360.24 126.02 343.99 125.82 C 341.59 125.47 339.19 125.11 336.80 124.74 C 336.92 124.30 337.05 123.86 337.18 123.42 C 330.71 122.61 324.51 120.49 318.05 119.64 C 307.27 117.11 296.55 113.57 285.35 113.56 C 286.76 113.16 288.19 112.86 289.60 112.47 C 284.99 112.22 280.43 111.42 275.97 110.20 C 268.61 108.26 261.03 107.25 253.72 105.08 C 250.20 104.07 246.52 103.88 242.88 103.76 C 242.93 103.22 242.98 102.67 243.03 102.13 C 234.09 101.76 225.58 98.90 216.78 97.67 C 216.93 97.19 217.08 96.71 217.24 96.23 C 213.19 96.15 209.14 95.87 205.09 95.68 C 206.01 95.24 206.94 94.81 207.87 94.38 C 194.19 94.56 181.76 87.11 168.05 87.61 C 169.32 87.26 170.60 86.90 171.89 86.55 C 161.84 84.86 151.80 83.03 141.93 80.46 C 132.26 79.08 122.74 76.89 113.24 74.63 C 98.96 70.58 84.08 69.23 69.74 65.46 C 65.84 64.44 61.84 64.01 57.84 63.70 C 57.93 63.24 58.03 62.79 58.13 62.34 C 51.02 61.33 43.83 58.55 36.63 60.58 C 36.16 76.05 35.36 91.52 35.84 107.00 C 35.72 130.64 35.98 154.28 35.56 177.92 C 34.77 194.61 35.29 211.32 35.85 227.99 C 34.58 245.97 35.56 263.99 34.98 281.99 C 34.73 289.35 36.17 296.65 35.81 304.02 C 35.38 314.68 36.03 325.35 35.88 336.02 C 35.76 340.42 36.28 344.93 35.15 349.23 C 32.16 351.14 28.12 351.24 24.81 350.20 C 23.88 346.88 24.34 343.38 24.29 339.99 C 24.37 315.33 24.27 290.66 24.35 266.00 C 23.80 209.67 24.51 153.34 24.35 97.00 C 24.29 89.60 24.64 82.17 23.92 74.79 C 24.69 66.77 23.67 58.67 24.69 50.66 Z" fill="#668092" opacity="1.00" stroke="#668092" stroke-width="0.25"/>
<path d="M 14.11 53.90 C 16.62 53.88 19.12 53.83 21.62 53.74 C 22.59 61.05 20.74 68.59 23.18 75.70 C 23.45 89.80 23.23 103.90 23.15 118.00 C 23.61 167.33 22.71 216.67 23.32 266.00 C 23.21 286.24 23.50 306.48 23.19 326.71 C 17.63 328.99 16.42 335.82 18.41 340.96 C 19.70 340.06 20.97 339.14 22.26 338.25 C 22.00 341.55 21.41 344.87 19.74 347.78 C 16.35 353.62 17.20 360.61 16.22 367.05 C 15.07 374.50 18.88 382.53 14.52 389.41 C 13.06 383.38 13.62 377.14 13.56 371.00 C 13.55 271.67 13.58 172.33 13.61 73.00 C 13.69 66.64 13.17 60.22 14.11 53.90 Z" fill="#13304a" opacity="1.00" stroke="#13304a" stroke-width="0.25"/>
<path d="M 46.28 70.10 C 47.47 69.98 48.67 69.86 49.87 69.74 C 49.04 70.60 48.10 71.39 47.49 72.42 C 47.27 74.94 47.24 77.47 47.26 79.99 C 47.62 98.99 47.24 118.00 47.28 137.00 C 47.03 149.00 47.55 161.01 46.92 173.00 C 46.49 184.34 47.56 195.66 47.29 207.00 C 47.41 255.24 47.09 303.48 47.44 351.71 C 50.17 352.72 52.96 353.58 55.81 354.19 C 62.10 356.32 68.55 357.91 75.11 358.98 C 94.17 363.54 113.33 367.68 132.55 371.53 C 140.95 373.84 149.55 375.27 158.07 377.04 C 161.85 378.49 165.74 379.66 169.73 380.40 C 217.54 391.30 265.37 402.12 313.20 412.95 C 329.16 416.62 345.24 419.83 361.09 423.99 C 383.28 428.96 405.62 433.23 427.79 438.26 C 433.08 439.46 438.33 441.93 443.87 441.20 C 446.34 440.84 445.58 437.81 445.98 436.05 C 446.74 414.04 445.92 392.02 446.15 370.00 C 445.98 311.67 446.60 253.34 446.20 195.01 C 446.31 186.00 446.35 176.99 446.30 167.99 C 446.21 165.18 446.23 162.30 445.40 159.59 C 444.27 158.51 442.73 158.05 441.28 157.62 C 424.60 153.82 407.84 150.37 391.09 146.86 C 384.68 145.46 378.26 144.06 372.02 142.04 C 377.08 141.98 381.96 143.42 386.87 144.43 C 400.13 147.83 413.57 150.49 426.99 153.18 C 433.47 155.14 440.35 155.62 446.63 158.24 C 446.84 170.58 446.53 182.93 446.93 195.27 C 446.28 218.50 446.95 241.76 446.77 265.00 C 446.66 312.67 446.65 360.34 446.67 408.01 C 446.92 415.91 446.52 423.82 446.95 431.72 C 446.98 435.10 446.70 438.48 446.64 441.86 C 442.67 443.39 438.41 442.11 434.41 441.38 C 416.81 436.78 398.94 433.37 381.13 429.71 C 365.78 426.02 350.35 422.64 335.00 418.94 C 320.09 416.46 305.61 412.08 290.79 409.15 C 278.25 406.44 265.80 403.34 253.21 400.82 C 239.93 397.61 226.64 394.36 213.23 391.71 C 184.17 384.82 155.08 377.99 125.78 372.21 C 104.85 367.28 83.75 363.11 62.77 358.35 C 57.12 357.59 51.88 355.30 46.60 353.27 C 45.55 347.23 46.31 341.09 46.20 335.00 C 46.21 275.99 46.16 217.00 46.15 158.00 C 45.92 134.33 46.48 110.67 46.17 87.00 C 46.00 81.37 45.63 75.72 46.28 70.10 Z" fill="#5f778a" opacity="1.00" stroke="#5f778a" stroke-width="0.25"/>
<path d="M 47.49 72.42 C 50.87 72.35 54.26 72.64 57.64 72.40 C 57.17 72.82 56.71 73.24 56.25 73.67 C 72.20 77.35 88.42 79.79 104.23 84.09 L 103.32 84.29 C 92.61 84.93 82.56 80.48 72.13 78.86 C 65.85 77.95 59.63 75.97 53.25 76.25 C 50.46 76.40 50.29 79.87 50.10 81.98 C 49.71 109.32 50.44 136.66 49.91 164.00 C 50.00 195.34 50.01 226.69 50.15 258.02 C 50.99 268.00 50.54 278.01 50.16 288.00 C 49.86 294.69 51.43 301.33 50.78 308.02 C 50.32 313.26 49.99 318.52 50.33 323.78 C 50.76 331.20 49.58 338.61 50.07 346.02 C 49.73 351.04 55.71 351.73 59.04 353.80 C 58.23 353.90 56.62 354.09 55.81 354.19 C 52.96 353.58 50.17 352.72 47.44 351.71 C 47.09 303.48 47.41 255.24 47.29 207.00 C 47.56 195.66 46.49 184.34 46.92 173.00 C 47.55 161.01 47.03 149.00 47.28 137.00 C 47.24 118.00 47.62 98.99 47.26 79.99 C 47.24 77.47 47.27 74.94 47.49 72.42 Z" fill="#daedf7" opacity="1.00" stroke="#daedf7" stroke-width="0.25"/>
<path d="M 23.18 75.70 L 23.92 74.79 C 24.64 82.17 24.29 89.60 24.35 97.00 C 24.51 153.34 23.80 209.67 24.35 266.00 C 24.27 290.66 24.37 315.33 24.29 339.99 C 24.34 343.38 23.88 346.88 24.81 350.20 C 28.12 351.24 32.16 351.14 35.15 349.23 C 36.28 344.93 35.76 340.42 35.88 336.02 C 36.03 325.35 35.38 314.68 35.81 304.02 C 36.17 296.65 34.73 289.35 34.98 281.99 C 35.56 263.99 34.58 245.97 35.85 227.99 C 35.29 211.32 34.77 194.61 35.56 177.92 C 36.64 186.23 37.54 194.60 37.37 202.99 C 37.12 234.33 36.61 265.66 36.89 297.00 C 37.22 305.97 36.32 314.97 37.23 323.92 C 38.22 331.83 37.12 339.77 37.32 347.70 C 37.22 353.17 30.43 353.56 26.56 355.29 C 26.91 356.25 27.26 357.21 27.61 358.18 C 26.63 358.67 25.64 359.18 24.64 359.65 C 24.43 359.62 24.02 359.57 23.81 359.54 C 24.10 357.07 22.75 354.98 21.74 352.86 C 21.68 351.07 22.24 349.33 22.54 347.59 C 24.07 340.73 23.13 333.67 23.19 326.71 C 23.50 306.48 23.21 286.24 23.32 266.00 C 22.71 216.67 23.61 167.33 23.15 118.00 C 23.23 103.90 23.45 89.80 23.18 75.70 Z" fill="#36526a" opacity="1.00" stroke="#36526a" stroke-width="0.25"/>
<path d="M 50.10 81.98 C 50.29 79.87 50.46 76.40 53.25 76.25 C 59.63 75.97 65.85 77.95 72.13 78.86 C 82.56 80.48 92.61 84.93 103.32 84.29 C 108.96 84.95 114.53 86.35 120.02 87.75 C 123.75 89.34 127.65 90.45 131.63 91.21 C 165.34 98.34 198.83 106.45 232.65 113.10 C 252.63 117.32 272.58 121.70 292.49 126.26 C 304.26 128.90 316.12 131.13 327.83 134.01 C 343.93 137.94 360.19 141.13 376.40 144.58 C 392.08 148.62 408.08 151.30 423.83 155.06 C 430.62 156.77 437.62 157.67 444.25 160.00 C 444.72 180.32 444.25 200.67 444.43 221.00 C 444.43 291.34 444.42 361.69 444.43 432.04 C 444.40 434.57 443.74 437.03 443.09 439.47 C 436.63 439.08 430.35 437.48 424.07 436.07 C 406.23 432.00 388.25 428.63 370.37 424.78 C 348.47 419.39 326.40 414.73 304.41 409.72 C 266.99 401.06 229.48 392.80 192.07 384.08 C 180.65 382.11 169.71 377.81 158.07 377.04 C 149.55 375.27 140.95 373.84 132.55 371.53 C 113.33 367.68 94.17 363.54 75.11 358.98 C 68.55 357.91 62.10 356.32 55.81 354.19 C 56.62 354.09 58.23 353.90 59.04 353.80 C 55.71 351.73 49.73 351.04 50.07 346.02 C 49.58 338.61 50.76 331.20 50.33 323.78 C 49.99 318.52 50.32 313.26 50.78 308.02 C 51.43 301.33 49.86 294.69 50.16 288.00 C 50.54 278.01 50.99 268.00 50.15 258.02 C 50.01 226.69 50.00 195.34 49.91 164.00 C 50.44 136.66 49.71 109.32 50.10 81.98 Z" fill="#fdfefe" opacity="1.00" stroke="#fdfefe" stroke-width="0.25"/>
<path d="M 120.02 87.75 C 126.73 86.75 132.83 90.39 139.30 91.41 C 163.22 96.02 186.90 101.77 210.65 107.09 C 242.27 113.11 273.53 120.87 305.13 126.98 C 319.13 130.52 333.24 133.68 347.38 136.61 C 355.41 139.18 363.94 139.64 372.02 142.04 C 378.26 144.06 384.68 145.46 391.09 146.86 C 407.84 150.37 424.60 153.82 441.28 157.62 C 442.73 158.05 444.27 158.51 445.40 159.59 C 446.23 162.30 446.21 165.18 446.30 167.99 C 446.35 176.99 446.31 186.00 446.20 195.01 C 446.60 253.34 445.98 311.67 446.15 370.00 C 445.92 392.02 446.74 414.04 445.98 436.05 C 445.58 437.81 446.34 440.84 443.87 441.20 C 438.33 441.93 433.08 439.46 427.79 438.26 C 405.62 433.23 383.28 428.96 361.09 423.99 C 345.24 419.83 329.16 416.62 313.20 412.95 C 265.37 402.12 217.54 391.30 169.73 380.40 C 165.74 379.66 161.85 378.49 158.07 377.04 C 169.71 377.81 180.65 382.11 192.07 384.08 C 229.48 392.80 266.99 401.06 304.41 409.72 C 326.40 414.73 348.47 419.39 370.37 424.78 C 388.25 428.63 406.23 432.00 424.07 436.07 C 430.35 437.48 436.63 439.08 443.09 439.47 C 443.74 437.03 444.40 434.57 444.43 432.04 C 444.42 361.69 444.43 291.34 444.43 221.00 C 444.25 200.67 444.72 180.32 444.25 160.00 C 437.62 157.67 430.62 156.77 423.83 155.06 C 408.08 151.30 392.08 148.62 376.40 144.58 C 360.19 141.13 343.93 137.94 327.83 134.01 C 316.12 131.13 304.26 128.90 292.49 126.26 C 272.58 121.70 252.63 117.32 232.65 113.10 C 198.83 106.45 165.34 98.34 131.63 91.21 C 127.65 90.45 123.75 89.34 120.02 87.75 Z" fill="#9eafbf" opacity="1.00" stroke="#9eafbf" stroke-width="0.25"/>
<path d="M 463.82 106.75 C 472.86 106.81 482.16 108.38 490.02 113.06 C 495.40 116.88 499.89 122.12 502.70 128.11 C 506.64 136.88 505.57 146.67 505.62 156.00 C 505.66 260.00 505.56 364.00 505.67 467.99 C 506.28 475.64 504.80 483.58 500.13 489.82 C 499.92 489.31 499.50 488.30 499.29 487.79 C 500.78 485.49 501.55 482.85 501.59 480.11 C 502.85 470.79 502.30 461.37 502.37 452.00 C 502.57 348.65 502.39 245.30 502.49 141.95 C 502.60 130.37 495.73 119.36 486.01 113.37 C 479.37 109.10 471.24 108.80 463.82 106.75 Z" fill="#c7d6e3" opacity="1.00" stroke="#c7d6e3" stroke-width="0.25"/>
<path d="M 110.42 110.51 C 116.76 109.85 123.12 110.89 129.38 111.83 C 136.68 113.82 144.21 116.01 150.30 120.70 C 154.15 123.46 157.56 126.78 160.42 130.56 C 162.69 133.58 165.59 136.08 167.65 139.26 C 171.95 147.37 176.22 155.78 177.49 164.97 C 176.95 170.79 176.97 176.71 175.48 182.40 C 174.30 187.11 175.59 192.16 173.71 196.72 C 170.24 206.19 164.29 215.16 155.69 220.64 C 143.03 226.73 128.31 228.10 114.62 225.19 C 106.90 223.31 100.08 218.96 93.96 214.02 C 89.62 210.36 86.55 205.46 82.27 201.73 C 79.75 199.67 78.13 196.82 77.22 193.73 C 75.15 187.06 70.48 181.19 70.27 174.01 C 69.57 159.78 69.36 144.40 76.75 131.70 C 80.50 126.61 84.29 121.09 90.07 118.13 C 92.85 116.59 95.55 114.91 98.35 113.40 C 102.03 111.35 106.32 111.02 110.42 110.51 Z" fill="#cbf5e0" opacity="1.00" stroke="#cbf5e0" stroke-width="0.25"/>
<path d="M 102.33 115.68 C 106.50 114.75 110.76 114.26 114.99 113.69 C 129.26 112.32 143.25 118.88 153.42 128.57 C 155.73 131.27 157.65 134.34 160.52 136.52 C 163.69 139.06 165.35 142.87 166.49 146.65 C 167.53 150.47 170.99 153.06 171.84 156.95 C 173.33 163.65 173.25 170.56 173.74 177.38 L 172.94 177.76 C 169.66 177.47 165.36 178.77 162.80 176.22 C 161.95 170.89 162.69 165.36 161.14 160.12 C 159.23 151.00 153.67 143.22 147.82 136.19 C 142.81 131.91 136.96 126.95 129.91 127.70 C 129.46 131.41 129.43 135.15 129.90 138.86 C 134.03 141.51 138.86 143.14 142.50 146.50 C 149.36 154.03 151.34 164.45 152.10 174.28 C 149.48 175.47 146.13 176.60 143.72 174.32 C 142.10 169.51 143.04 164.05 140.44 159.52 C 137.56 154.62 133.63 149.92 128.21 147.78 C 125.75 146.53 122.40 145.57 121.60 142.56 C 120.76 137.99 120.92 133.29 120.16 128.70 C 119.98 127.16 119.77 125.63 119.57 124.11 C 112.42 122.27 105.57 125.44 99.02 127.88 C 91.68 132.78 87.87 141.04 84.85 149.01 C 81.72 161.33 81.78 175.26 88.43 186.45 C 89.32 188.52 91.91 189.55 93.92 188.49 C 96.93 186.38 98.44 182.68 101.56 180.71 C 103.36 179.99 105.30 179.74 107.19 179.39 C 107.72 180.92 108.19 182.46 108.66 184.00 C 106.90 189.80 100.71 192.21 98.00 197.35 C 97.16 198.81 97.83 200.82 99.08 201.85 C 102.05 204.32 105.53 206.05 108.77 208.14 C 116.27 214.60 126.88 214.32 136.12 213.15 C 144.73 211.31 153.54 207.12 158.41 199.47 C 161.52 195.03 164.42 189.61 169.91 187.81 C 169.41 191.53 168.73 195.24 167.81 198.88 C 164.17 204.79 160.58 210.82 155.55 215.69 C 153.92 216.09 152.25 216.23 150.59 216.39 C 150.91 217.04 151.24 217.68 151.57 218.34 C 144.23 221.83 136.09 223.00 128.02 222.58 C 121.65 223.00 115.43 221.57 109.21 220.48 C 110.07 220.16 110.94 219.84 111.81 219.53 C 104.85 218.97 98.94 214.64 94.44 209.57 C 87.66 204.52 84.25 196.60 78.94 190.27 C 78.09 187.22 78.03 183.99 77.36 180.88 C 76.68 182.87 76.51 184.97 76.52 187.06 C 76.58 183.25 75.11 179.71 74.51 176.00 C 73.93 170.80 73.13 165.53 74.05 160.32 C 74.71 156.22 74.30 152.03 74.97 147.93 C 75.75 144.52 77.46 141.39 78.25 137.97 C 78.73 135.03 81.29 133.22 82.90 130.92 C 84.98 128.03 86.99 124.90 90.31 123.28 C 94.52 121.05 97.53 116.77 102.33 115.68 Z" fill="#52bb7d" opacity="1.00" stroke="#52bb7d" stroke-width="0.25"/>
<path d="M 411.07 114.83 C 417.74 115.27 424.18 117.13 430.71 118.44 C 440.44 120.58 450.18 122.69 459.85 125.10 C 464.71 126.25 469.41 128.38 473.05 131.88 C 478.89 136.86 480.72 144.82 481.47 152.13 C 482.81 179.39 482.41 206.70 481.95 233.98 C 482.33 243.99 481.43 253.99 481.80 264.00 C 481.74 283.38 481.22 302.78 482.32 322.14 C 481.65 339.68 481.73 357.25 481.79 374.80 C 481.54 388.95 481.43 403.12 481.93 417.28 C 481.30 431.51 481.84 445.76 481.61 459.99 C 481.37 470.28 482.83 480.70 480.37 490.83 C 481.19 490.53 482.00 490.23 482.82 489.91 C 482.89 490.46 483.03 491.57 483.09 492.12 C 481.62 492.73 480.12 493.25 478.63 493.79 C 478.51 492.23 478.40 490.67 478.36 489.12 C 478.86 486.77 479.73 484.47 479.77 482.05 C 479.44 434.04 479.68 386.02 479.69 338.00 C 479.63 275.66 479.80 213.31 479.67 150.97 C 479.77 145.67 476.44 141.23 474.54 136.50 C 469.62 127.91 458.86 126.76 450.17 124.58 C 443.01 122.28 435.35 122.33 428.25 119.83 C 422.62 117.89 415.92 118.61 411.07 114.83 Z" fill="#8297a9" opacity="1.00" stroke="#8297a9" stroke-width="0.25"/>
<path d="M 99.02 127.88 C 105.57 125.44 112.42 122.27 119.57 124.11 C 119.77 125.63 119.98 127.16 120.16 128.70 C 120.21 133.94 119.95 139.18 119.71 144.42 L 119.47 143.69 C 119.32 143.07 119.02 141.82 118.88 141.20 C 119.09 137.62 118.91 134.01 117.91 130.54 C 112.68 132.43 108.02 128.91 103.00 128.14 C 101.67 128.03 100.34 127.95 99.02 127.88 Z" fill="#a0efc1" opacity="1.00" stroke="#a0efc1" stroke-width="0.25"/>
<path d="M 84.85 149.01 C 87.87 141.04 91.68 132.78 99.02 127.88 C 100.34 127.95 101.67 128.03 103.00 128.14 C 97.32 130.39 92.87 134.94 91.01 140.79 C 93.92 144.99 97.21 148.96 99.53 153.54 C 100.77 155.68 99.88 158.16 99.64 160.44 C 98.71 165.86 99.88 171.30 100.28 176.71 C 101.87 176.86 103.45 176.99 105.04 177.12 C 105.77 177.86 106.50 178.61 107.19 179.39 C 105.30 179.74 103.36 179.99 101.56 180.71 C 98.44 182.68 96.93 186.38 93.92 188.49 C 91.91 189.55 89.32 188.52 88.43 186.45 C 81.78 175.26 81.72 161.33 84.85 149.01 Z" fill="#9df2c1" opacity="1.00" stroke="#9df2c1" stroke-width="0.25"/>
<path d="M 103.00 128.14 C 108.02 128.91 112.68 132.43 117.91 130.54 C 118.91 134.01 119.09 137.62 118.88 141.20 C 118.40 140.01 117.89 138.84 117.38 137.67 C 111.87 136.72 107.53 133.18 102.81 130.55 C 99.87 130.88 96.29 132.83 95.98 136.05 C 97.04 141.31 100.84 145.50 102.35 150.61 C 104.14 155.49 101.44 160.43 101.54 165.38 C 101.63 169.47 101.72 174.19 105.04 177.12 C 103.45 176.99 101.87 176.86 100.28 176.71 C 99.88 171.30 98.71 165.86 99.64 160.44 C 99.88 158.16 100.77 155.68 99.53 153.54 C 97.21 148.96 93.92 144.99 91.01 140.79 C 92.87 134.94 97.32 130.39 103.00 128.14 Z" fill="#b3f3cf" opacity="1.00" stroke="#b3f3cf" stroke-width="0.25"/>
<path d="M 129.91 127.70 C 136.96 126.95 142.81 131.91 147.82 136.19 C 153.67 143.22 159.23 151.00 161.14 160.12 C 162.69 165.36 161.95 170.89 162.80 176.22 C 165.36 178.77 169.66 177.47 172.94 177.76 C 171.56 178.43 170.23 179.25 168.73 179.64 C 162.92 180.78 158.17 174.28 152.37 176.92 C 152.30 176.26 152.17 174.94 152.10 174.28 C 151.34 164.45 149.36 154.03 142.50 146.50 C 138.86 143.14 134.03 141.51 129.90 138.86 C 129.43 135.15 129.46 131.41 129.91 127.70 Z" fill="#82f6b4" opacity="1.00" stroke="#82f6b4" stroke-width="0.25"/>
<path d="M 120.16 128.70 C 120.92 133.29 120.76 137.99 121.60 142.56 C 122.40 145.57 125.75 146.53 128.21 147.78 C 133.63 149.92 137.56 154.62 140.44 159.52 C 143.04 164.05 142.10 169.51 143.72 174.32 C 146.13 176.60 149.48 175.47 152.10 174.28 C 152.17 174.94 152.30 176.26 152.37 176.92 C 150.54 177.39 148.71 177.90 146.86 178.30 C 146.17 178.18 144.80 177.93 144.12 177.80 C 140.16 171.83 142.13 163.87 137.94 158.03 C 135.37 154.38 132.07 150.98 127.74 149.53 C 124.72 148.46 121.68 147.07 119.71 144.42 C 119.95 139.18 120.21 133.94 120.16 128.70 Z" fill="#82d4a4" opacity="1.00" stroke="#82d4a4" stroke-width="0.25"/>
<path d="M 95.98 136.05 C 96.29 132.83 99.87 130.88 102.81 130.55 C 107.53 133.18 111.87 136.72 117.38 137.67 C 117.89 138.84 118.40 140.01 118.88 141.20 C 119.02 141.82 119.32 143.07 119.47 143.69 C 119.81 145.07 120.16 146.46 120.51 147.84 C 116.52 146.95 111.72 146.23 108.66 149.66 C 102.01 156.99 101.57 168.62 106.40 177.06 C 106.06 177.08 105.38 177.10 105.04 177.12 C 101.72 174.19 101.63 169.47 101.54 165.38 C 101.44 160.43 104.14 155.49 102.35 150.61 C 100.84 145.50 97.04 141.31 95.98 136.05 Z" fill="#c7f5da" opacity="1.00" stroke="#c7f5da" stroke-width="0.25"/>
<path d="M 192.41 134.39 C 197.65 132.86 203.06 134.93 208.28 135.68 C 219.20 137.42 229.65 141.16 240.44 143.46 C 244.13 144.54 249.10 145.62 250.17 149.94 C 251.49 153.30 251.02 157.76 247.63 159.70 C 243.63 161.10 239.36 159.57 235.47 158.50 C 228.79 156.27 221.75 155.61 214.88 154.22 C 207.82 153.02 200.93 151.03 194.10 148.90 C 192.09 148.18 189.54 147.23 189.10 144.84 C 188.36 141.15 187.79 135.69 192.41 134.39 Z" fill="#d9f9ea" opacity="1.00" stroke="#d9f9ea" stroke-width="0.25"/>
<path d="M 195.42 136.46 C 209.36 137.12 222.57 142.31 236.19 144.95 C 239.82 145.75 244.12 146.30 246.27 149.76 C 248.04 151.63 247.63 154.40 246.54 156.49 C 245.13 158.30 242.54 157.53 240.60 157.38 C 228.10 155.23 215.83 151.98 203.41 149.47 C 199.75 148.52 195.52 148.12 192.76 145.28 C 191.24 142.38 191.05 136.71 195.42 136.46 Z" fill="#9bd8b4" opacity="1.00" stroke="#9bd8b4" stroke-width="0.25"/>
<path d="M 195.40 138.44 C 201.17 137.67 206.87 139.19 212.40 140.65 C 218.67 142.53 225.10 143.79 231.42 145.46 C 234.83 146.38 238.48 146.69 241.62 148.42 C 243.88 149.74 244.47 152.43 245.03 154.79 C 243.52 155.60 241.85 156.12 240.13 155.75 C 233.15 154.72 226.23 153.26 219.39 151.54 C 213.42 150.08 207.27 149.43 201.43 147.48 C 199.18 146.66 196.77 145.64 195.42 143.55 C 195.10 141.87 195.35 140.14 195.40 138.44 Z" fill="#59bf82" opacity="1.00" stroke="#59bf82" stroke-width="0.25"/>
<path d="M 119.47 143.69 L 119.71 144.42 C 121.68 147.07 124.72 148.46 127.74 149.53 C 132.07 150.98 135.37 154.38 137.94 158.03 C 142.13 163.87 140.16 171.83 144.12 177.80 C 145.18 179.72 146.29 181.62 147.39 183.51 C 142.25 185.44 137.70 188.59 132.62 190.64 C 127.36 192.75 121.44 191.70 116.36 189.62 C 113.45 188.41 111.82 185.55 109.97 183.18 C 109.65 183.38 108.99 183.80 108.66 184.00 C 108.19 182.46 107.72 180.92 107.19 179.39 C 106.50 178.61 105.77 177.86 105.04 177.12 C 105.38 177.10 106.06 177.08 106.40 177.06 C 101.57 168.62 102.01 156.99 108.66 149.66 C 111.72 146.23 116.52 146.95 120.51 147.84 C 120.16 146.46 119.81 145.07 119.47 143.69 Z" fill="#d8f9e9" opacity="1.00" stroke="#d8f9e9" stroke-width="0.25"/>
<path d="M 265.03 150.08 C 267.22 145.06 274.20 143.15 278.65 146.35 C 280.80 147.90 283.37 150.03 282.98 152.99 C 282.64 158.67 281.28 164.26 281.20 169.96 C 281.05 180.31 281.26 190.65 281.20 201.00 C 281.14 205.68 281.56 210.36 282.36 214.97 C 285.11 214.59 287.92 213.91 290.10 212.09 C 298.33 205.33 306.47 198.47 314.70 191.71 C 319.58 187.58 323.23 181.75 329.23 179.10 C 334.50 177.89 338.48 182.88 341.68 186.32 C 346.03 192.24 351.52 197.16 356.86 202.15 C 358.91 203.83 361.77 206.12 364.50 204.57 C 367.70 202.10 370.42 199.06 373.67 196.65 C 376.50 194.58 377.28 190.97 379.22 188.23 C 381.18 185.51 385.69 186.27 387.38 183.36 C 388.35 178.09 384.37 171.90 388.20 167.22 C 394.37 162.07 402.98 163.82 410.03 165.89 C 413.02 166.90 417.03 167.32 418.40 170.64 C 420.97 176.05 419.83 182.22 420.10 187.99 C 419.95 192.51 420.87 197.88 417.51 201.50 C 414.42 204.52 409.91 204.15 406.01 205.00 C 404.09 206.66 404.37 209.64 404.13 211.97 C 404.03 229.99 404.27 248.01 404.13 266.04 C 404.04 269.95 404.86 273.83 406.61 277.34 C 410.64 278.66 415.18 278.87 418.79 281.22 C 422.44 285.44 422.21 291.97 419.66 296.68 C 417.00 299.85 412.18 299.39 408.59 298.36 C 402.74 296.39 396.68 295.13 390.77 293.35 C 381.31 290.62 371.46 289.59 361.94 287.12 C 355.95 285.52 349.72 285.08 343.78 283.30 C 336.71 281.21 329.25 280.94 322.21 278.74 C 315.27 276.87 308.40 274.61 301.26 273.66 C 294.02 272.71 287.11 270.19 279.89 269.19 C 275.21 268.33 269.96 268.08 266.26 264.74 C 264.33 263.08 263.91 260.44 263.89 258.04 C 264.13 226.69 263.97 195.35 263.89 164.00 C 263.98 159.37 263.24 154.48 265.03 150.08 Z" fill="#dffaee" opacity="1.00" stroke="#dffaee" stroke-width="0.25"/>
<path d="M 268.99 149.01 C 272.08 147.30 277.10 147.70 278.56 151.40 C 279.72 156.18 278.68 161.14 278.80 166.00 C 278.66 191.67 279.09 217.35 279.24 243.02 C 279.19 246.68 279.54 250.33 280.22 253.93 C 281.43 253.94 282.64 253.95 283.85 253.96 C 285.00 249.15 284.60 244.16 285.48 239.33 C 285.98 235.77 289.25 233.71 291.08 230.88 C 290.45 228.06 287.26 226.45 286.41 223.63 C 285.87 221.59 285.98 219.14 287.70 217.68 C 294.06 211.65 301.51 206.92 308.03 201.07 C 313.49 196.92 319.31 193.06 323.66 187.64 C 325.98 185.16 328.68 181.17 332.61 182.35 C 336.71 184.41 339.86 188.08 341.96 192.11 C 338.16 189.55 335.37 185.27 331.02 183.73 C 326.21 185.62 323.27 190.36 320.26 194.34 C 314.13 199.93 307.76 205.30 300.76 209.79 C 296.24 213.23 291.08 216.63 288.63 221.94 C 289.62 223.66 291.01 225.46 293.07 225.89 C 294.82 225.65 296.46 224.91 298.06 224.18 C 296.56 226.40 293.93 226.92 291.45 227.28 C 293.17 228.48 294.85 229.75 296.50 231.05 C 293.92 233.40 290.22 234.31 287.99 236.99 C 285.05 243.04 286.44 250.11 284.42 256.45 C 282.18 256.46 278.57 257.23 277.83 254.31 C 276.92 249.93 277.44 245.43 277.36 241.00 C 277.32 216.99 277.40 192.99 277.20 168.99 C 277.11 164.38 277.62 159.73 276.86 155.16 C 276.51 152.61 273.83 151.64 272.03 150.30 C 268.13 152.92 268.67 157.90 268.59 162.00 C 268.75 189.00 268.61 216.00 268.69 243.00 C 268.77 248.21 268.27 253.51 269.39 258.64 C 270.01 261.69 273.49 262.52 276.09 263.08 C 283.48 264.42 290.92 265.73 298.11 267.97 C 305.67 270.42 313.50 271.90 321.22 273.72 C 319.09 273.77 316.95 273.91 314.82 273.97 C 309.03 274.04 303.52 272.02 297.93 270.81 C 289.17 268.58 280.24 267.12 271.41 265.24 C 268.12 264.62 266.14 261.19 266.37 258.00 C 266.41 224.00 266.39 190.00 266.37 155.99 C 266.41 153.48 266.96 150.70 268.99 149.01 Z" fill="#a5e4c7" opacity="1.00" stroke="#a5e4c7" stroke-width="0.25"/>
<path d="M 115.39 150.38 C 121.84 149.64 127.98 153.21 132.72 157.28 C 138.29 161.79 137.20 169.74 139.04 175.99 C 139.33 178.43 141.23 181.85 138.60 183.61 C 133.91 187.19 127.84 190.04 121.86 188.19 C 117.60 187.76 115.83 183.49 113.42 180.58 C 111.08 177.29 107.61 174.63 106.45 170.62 C 105.25 165.47 105.99 159.93 108.14 155.12 C 109.27 152.16 112.58 151.07 115.39 150.38 Z" fill="#fdfefe" opacity="1.00" stroke="#fdfefe" stroke-width="0.25"/>
<path d="M 268.59 162.00 C 268.67 157.90 268.13 152.92 272.03 150.30 C 273.83 151.64 276.51 152.61 276.86 155.16 C 277.62 159.73 277.11 164.38 277.20 168.99 C 277.40 192.99 277.32 216.99 277.36 241.00 C 277.44 245.43 276.92 249.93 277.83 254.31 C 278.57 257.23 282.18 256.46 284.42 256.45 C 287.38 253.93 286.63 249.69 287.16 246.24 C 287.65 243.10 287.20 238.87 290.34 237.00 C 292.22 235.65 293.99 238.03 294.61 239.61 C 296.69 245.57 294.77 252.16 296.90 258.10 C 299.30 259.38 301.98 260.01 304.60 260.69 C 302.69 260.88 300.79 261.20 298.90 261.51 C 300.36 267.82 307.60 268.81 313.02 269.00 C 318.19 269.04 322.62 271.82 326.98 274.23 C 325.06 274.00 323.14 273.86 321.22 273.72 C 313.50 271.90 305.67 270.42 298.11 267.97 C 290.92 265.73 283.48 264.42 276.09 263.08 C 273.49 262.52 270.01 261.69 269.39 258.64 C 268.27 253.51 268.77 248.21 268.69 243.00 C 268.61 216.00 268.75 189.00 268.59 162.00 Z" fill="#58b580" opacity="1.00" stroke="#58b580" stroke-width="0.25"/>
<path d="M 191.34 155.30 C 198.30 153.70 205.24 156.52 212.00 157.92 C 223.11 160.48 234.67 161.90 244.99 167.04 C 249.90 169.08 251.13 176.75 247.29 180.30 C 241.50 183.18 235.30 179.86 229.58 178.51 C 222.22 177.13 215.17 174.42 207.76 173.27 C 202.12 172.08 196.25 171.46 190.97 169.03 C 185.56 166.59 185.27 157.06 191.34 155.30 Z" fill="#d9f9e8" opacity="1.00" stroke="#d9f9e8" stroke-width="0.25"/>
<path d="M 192.39 158.30 C 196.00 157.25 199.82 157.98 203.42 158.70 C 212.38 160.83 221.49 162.20 230.38 164.62 C 234.98 165.93 240.00 166.31 244.11 168.91 C 246.52 171.21 247.05 176.13 244.29 178.35 C 241.65 179.27 238.83 178.25 236.21 177.73 C 223.77 174.49 211.20 171.78 198.60 169.22 C 195.52 168.53 191.93 167.62 190.34 164.60 C 189.15 162.43 189.47 158.77 192.39 158.30 Z" fill="#a0e0bc" opacity="1.00" stroke="#a0e0bc" stroke-width="0.25"/>
<path d="M 192.15 160.36 C 194.80 159.47 197.63 158.85 200.41 159.55 C 207.56 161.02 214.73 162.36 221.82 164.14 C 229.22 165.92 236.96 166.89 243.84 170.33 C 243.75 172.06 243.66 173.78 243.58 175.51 C 239.67 176.38 235.64 176.14 231.78 175.19 C 222.89 172.98 213.90 171.20 205.02 168.97 C 201.02 167.95 196.30 167.98 193.34 164.68 C 192.01 163.63 192.39 161.82 192.15 160.36 Z" fill="#5fc285" opacity="1.00" stroke="#5fc285" stroke-width="0.25"/>
<path d="M 448.23 164.87 C 450.02 171.26 449.16 178.16 449.38 184.73 C 452.91 194.63 449.29 205.31 451.89 215.38 C 452.88 215.02 453.88 214.66 454.88 214.31 C 454.91 215.61 454.96 216.92 455.00 218.23 C 454.07 218.37 453.15 218.50 452.23 218.64 C 448.66 229.50 453.50 240.73 451.60 251.75 C 450.49 258.79 451.09 265.91 450.92 273.00 C 450.95 278.64 450.29 284.43 452.07 289.89 C 453.46 293.93 451.63 298.16 452.52 302.27 C 453.01 306.86 455.13 311.39 454.08 316.05 C 452.89 324.00 450.95 331.88 451.04 339.97 C 450.40 346.03 452.09 352.06 451.23 358.11 C 450.62 363.72 451.05 369.37 450.94 375.00 C 451.02 381.26 450.50 387.55 451.31 393.79 C 451.91 398.19 450.85 402.58 450.90 406.99 C 450.85 414.76 451.32 422.55 450.35 430.28 C 449.67 434.27 452.69 439.52 448.27 442.09 C 448.14 438.59 447.71 435.13 446.95 431.72 C 446.52 423.82 446.92 415.91 446.67 408.01 C 446.65 360.34 446.66 312.67 446.77 265.00 C 446.95 241.76 446.28 218.50 446.93 195.27 C 449.32 185.30 447.19 174.97 448.23 164.87 Z" fill="#132b42" opacity="1.00" stroke="#132b42" stroke-width="0.25"/>
<path d="M 390.58 168.58 C 398.34 166.35 406.67 167.83 413.88 171.14 C 416.17 172.09 416.24 174.83 416.35 176.94 C 416.50 184.09 416.18 191.24 416.48 198.38 C 414.36 199.11 412.30 200.22 410.03 200.30 C 407.83 200.06 405.96 198.74 404.14 197.61 C 402.99 196.83 401.87 196.00 400.75 195.18 C 397.32 197.15 394.57 200.00 391.71 202.68 C 391.28 202.80 390.42 203.04 389.99 203.16 C 393.08 199.21 396.02 193.37 401.77 193.42 C 403.81 194.61 405.43 196.40 407.45 197.62 C 409.61 198.39 411.85 197.41 413.98 196.98 C 414.51 190.35 414.66 183.66 414.00 177.04 C 413.95 174.56 411.44 173.38 409.58 172.33 C 405.59 170.42 401.11 168.96 396.65 169.58 C 393.24 170.04 390.71 174.37 392.56 177.44 C 394.20 179.07 396.39 177.69 398.26 177.33 C 400.57 176.55 403.01 176.20 405.46 176.21 C 405.91 181.16 406.45 186.25 404.90 191.07 C 401.04 189.84 396.24 185.87 392.65 189.66 C 390.28 192.18 386.94 192.83 383.62 192.76 C 380.54 200.48 373.71 205.40 367.83 210.86 C 366.38 212.00 364.90 213.39 363.00 213.62 C 361.56 213.53 360.47 212.43 359.36 211.66 C 349.79 203.86 341.73 194.40 332.41 186.34 C 331.36 185.17 329.84 185.90 328.93 186.80 C 326.00 189.27 323.27 191.96 320.26 194.34 C 323.27 190.36 326.21 185.62 331.02 183.73 C 335.37 185.27 338.16 189.55 341.96 192.11 C 348.98 197.37 353.67 205.03 360.63 210.36 C 362.48 211.31 364.98 211.00 366.26 209.25 C 369.64 205.61 373.87 202.90 377.33 199.33 C 379.81 197.00 379.82 193.36 380.49 190.25 C 384.49 189.45 389.53 190.71 392.12 186.75 C 396.30 186.94 400.47 187.23 404.63 187.62 C 405.27 184.15 405.20 180.62 404.54 177.17 C 400.35 178.27 396.37 180.01 392.28 181.39 C 388.72 177.97 389.28 172.88 390.58 168.58 Z" fill="#9ae0bd" opacity="1.00" stroke="#9ae0bd" stroke-width="0.25"/>
<path d="M 396.65 169.58 C 401.11 168.96 405.59 170.42 409.58 172.33 C 411.44 173.38 413.95 174.56 414.00 177.04 C 414.66 183.66 414.51 190.35 413.98 196.98 C 411.85 197.41 409.61 198.39 407.45 197.62 C 405.43 196.40 403.81 194.61 401.77 193.42 C 396.02 193.37 393.08 199.21 389.99 203.16 C 387.35 205.06 384.84 207.15 382.33 209.22 C 377.79 211.92 374.79 216.35 370.87 219.73 C 367.07 220.93 362.99 220.84 359.14 221.86 C 349.91 216.27 343.25 207.65 336.13 199.74 L 335.88 198.92 C 335.67 197.64 335.49 196.36 335.32 195.07 C 331.48 194.99 328.82 197.81 326.28 200.28 C 321.89 204.66 316.12 207.32 311.82 211.79 C 307.51 216.25 301.95 219.30 298.06 224.18 C 296.46 224.91 294.82 225.65 293.07 225.89 C 291.01 225.46 289.62 223.66 288.63 221.94 C 291.08 216.63 296.24 213.23 300.76 209.79 C 307.76 205.30 314.13 199.93 320.26 194.34 C 323.27 191.96 326.00 189.27 328.93 186.80 C 329.84 185.90 331.36 185.17 332.41 186.34 C 341.73 194.40 349.79 203.86 359.36 211.66 C 360.47 212.43 361.56 213.53 363.00 213.62 C 364.90 213.39 366.38 212.00 367.83 210.86 C 373.71 205.40 380.54 200.48 383.62 192.76 C 386.94 192.83 390.28 192.18 392.65 189.66 C 396.24 185.87 401.04 189.84 404.90 191.07 C 406.45 186.25 405.91 181.16 405.46 176.21 C 403.01 176.20 400.57 176.55 398.26 177.33 C 396.39 177.69 394.20 179.07 392.56 177.44 C 390.71 174.37 393.24 170.04 396.65 169.58 Z" fill="#52ba7d" opacity="1.00" stroke="#52ba7d" stroke-width="0.25"/>
<path d="M 152.37 176.92 C 158.17 174.28 162.92 180.78 168.73 179.64 C 170.23 179.25 171.56 178.43 172.94 177.76 L 173.74 177.38 C 173.15 179.26 172.45 181.12 172.05 183.05 C 171.99 186.16 173.19 189.29 172.24 192.36 C 169.91 200.60 165.56 208.35 159.18 214.13 C 158.23 215.14 156.81 215.32 155.55 215.69 C 160.58 210.82 164.17 204.79 167.81 198.88 C 170.82 194.93 173.24 188.70 168.79 184.83 C 166.81 185.75 164.67 186.51 163.15 188.15 C 159.56 191.90 158.70 197.39 155.23 201.22 C 152.28 204.42 148.52 206.78 144.60 208.60 C 139.08 211.09 133.17 213.18 127.02 212.89 C 120.60 213.01 114.61 210.48 108.77 208.14 C 105.53 206.05 102.05 204.32 99.08 201.85 C 97.83 200.82 97.16 198.81 98.00 197.35 C 100.71 192.21 106.90 189.80 108.66 184.00 C 108.99 183.80 109.65 183.38 109.97 183.18 C 109.75 185.64 109.50 188.10 109.24 190.56 C 115.37 192.11 121.63 193.96 128.03 193.26 C 132.17 192.95 136.01 191.27 139.92 190.03 C 145.45 188.05 151.51 191.55 156.92 188.95 C 159.81 187.76 161.66 185.13 163.44 182.70 C 160.86 181.04 157.95 182.13 155.16 182.34 C 152.13 181.68 149.65 179.57 146.86 178.30 C 148.71 177.90 150.54 177.39 152.37 176.92 Z" fill="#9cf4c1" opacity="1.00" stroke="#9cf4c1" stroke-width="0.25"/>
<path d="M 189.49 177.71 C 192.72 177.59 195.75 176.19 198.96 176.10 C 203.48 176.77 207.85 178.26 212.42 178.66 C 215.98 179.26 220.23 179.24 222.77 182.23 C 226.26 185.90 224.97 192.27 221.46 195.44 C 218.03 198.30 213.52 196.05 209.75 195.28 C 204.43 193.67 198.21 194.07 193.81 190.20 C 190.34 187.30 186.15 185.52 182.12 183.55 C 181.97 179.68 186.16 177.77 189.49 177.71 Z" fill="#d9f2e9" opacity="1.00" stroke="#d9f2e9" stroke-width="0.25"/>
<path d="M 392.28 181.39 C 396.37 180.01 400.35 178.27 404.54 177.17 C 405.20 180.62 405.27 184.15 404.63 187.62 C 400.47 187.23 396.30 186.94 392.12 186.75 C 392.17 184.96 392.22 183.18 392.28 181.39 Z" fill="#9cf7c2" opacity="1.00" stroke="#9cf7c2" stroke-width="0.25"/>
<path d="M 144.12 177.80 C 144.80 177.93 146.17 178.18 146.86 178.30 C 149.65 179.57 152.13 181.68 155.16 182.34 C 157.95 182.13 160.86 181.04 163.44 182.70 C 161.66 185.13 159.81 187.76 156.92 188.95 C 151.51 191.55 145.45 188.05 139.92 190.03 C 136.01 191.27 132.17 192.95 128.03 193.26 C 121.63 193.96 115.37 192.11 109.24 190.56 C 109.50 188.10 109.75 185.64 109.97 183.18 C 111.82 185.55 113.45 188.41 116.36 189.62 C 121.44 191.70 127.36 192.75 132.62 190.64 C 137.70 188.59 142.25 185.44 147.39 183.51 C 146.29 181.62 145.18 179.72 144.12 177.80 Z" fill="#b6f3cf" opacity="1.00" stroke="#b6f3cf" stroke-width="0.25"/>
<path d="M 197.27 180.03 C 199.56 179.09 202.11 180.08 204.46 180.36 C 209.01 181.41 213.75 181.52 218.25 182.80 C 222.91 185.53 218.91 193.39 214.07 192.44 C 208.88 192.18 203.20 192.23 198.64 189.38 C 195.53 187.57 194.01 182.37 197.27 180.03 Z" fill="#90d6ad" opacity="1.00" stroke="#90d6ad" stroke-width="0.25"/>
<path d="M 198.06 182.15 C 203.46 180.57 209.07 182.70 214.39 183.69 C 216.84 183.98 218.15 186.34 217.68 188.64 C 215.72 192.06 211.27 191.43 207.97 191.13 C 203.09 190.83 199.14 186.75 198.06 182.15 Z" fill="#5dc081" opacity="1.00" stroke="#5dc081" stroke-width="0.25"/>
<path d="M 163.15 188.15 C 164.67 186.51 166.81 185.75 168.79 184.83 C 173.24 188.70 170.82 194.93 167.81 198.88 C 168.73 195.24 169.41 191.53 169.91 187.81 C 164.42 189.61 161.52 195.03 158.41 199.47 C 153.54 207.12 144.73 211.31 136.12 213.15 C 126.88 214.32 116.27 214.60 108.77 208.14 C 114.61 210.48 120.60 213.01 127.02 212.89 C 133.17 213.18 139.08 211.09 144.60 208.60 C 148.52 206.78 152.28 204.42 155.23 201.22 C 158.70 197.39 159.56 191.90 163.15 188.15 Z" fill="#74d69a" opacity="1.00" stroke="#74d69a" stroke-width="0.25"/>
<path d="M 326.28 200.28 C 328.82 197.81 331.48 194.99 335.32 195.07 C 335.49 196.36 335.67 197.64 335.88 198.92 C 334.84 198.02 333.94 196.31 332.34 196.59 C 329.94 197.99 328.02 200.24 326.93 202.80 C 325.90 205.31 327.37 208.07 329.27 209.73 C 332.63 212.66 337.63 212.26 341.18 214.78 C 342.37 216.94 343.21 219.32 344.88 221.19 C 345.10 219.50 346.08 217.58 344.98 216.00 C 343.05 212.60 340.75 209.44 338.78 206.07 C 341.21 208.00 343.53 210.08 345.43 212.55 C 349.23 217.34 354.05 221.21 359.03 224.72 C 361.27 223.75 363.47 222.51 365.94 222.27 C 368.29 222.38 370.43 223.51 372.60 224.31 C 370.45 240.34 372.83 256.56 371.61 272.62 C 368.84 274.69 364.90 273.27 361.67 273.48 C 358.57 272.91 355.47 272.29 352.39 271.62 C 352.08 269.43 351.76 267.24 351.69 265.04 C 351.62 251.09 352.04 237.13 351.50 223.18 C 349.83 223.00 347.86 222.13 346.42 223.43 C 343.12 225.77 343.36 230.22 343.40 233.81 C 343.94 245.15 343.84 256.51 343.73 267.87 C 337.43 267.68 331.23 266.48 325.17 264.77 C 325.20 251.25 326.05 237.72 325.52 224.20 C 325.59 221.05 322.46 217.83 319.23 218.99 C 316.80 219.35 316.71 222.26 316.36 224.18 C 315.88 231.11 316.32 238.06 316.19 245.01 C 316.16 250.62 316.96 256.27 315.94 261.85 C 312.13 261.72 308.34 261.36 304.60 260.69 C 301.98 260.01 299.30 259.38 296.90 258.10 C 294.77 252.16 296.69 245.57 294.61 239.61 C 293.99 238.03 292.22 235.65 290.34 237.00 C 287.20 238.87 287.65 243.10 287.16 246.24 C 286.63 249.69 287.38 253.93 284.42 256.45 C 286.44 250.11 285.05 243.04 287.99 236.99 C 290.22 234.31 293.92 233.40 296.50 231.05 C 294.85 229.75 293.17 228.48 291.45 227.28 C 293.93 226.92 296.56 226.40 298.06 224.18 C 301.95 219.30 307.51 216.25 311.82 211.79 C 316.12 207.32 321.89 204.66 326.28 200.28 Z" fill="#9bf5c1" opacity="1.00" stroke="#9bf5c1" stroke-width="0.25"/>
<path d="M 391.71 202.68 C 394.57 200.00 397.32 197.15 400.75 195.18 C 401.87 196.00 402.99 196.83 404.14 197.61 C 402.16 197.92 400.19 198.23 398.22 198.53 C 398.11 204.04 399.28 209.49 399.10 215.00 C 398.65 228.33 399.32 241.67 399.06 255.00 C 399.18 261.96 398.59 269.05 400.06 275.91 C 400.58 278.62 402.83 280.44 404.95 281.96 C 403.63 281.65 402.31 281.30 401.01 280.91 C 398.16 278.95 395.67 276.11 395.49 272.49 C 394.66 262.93 394.80 253.26 395.64 243.69 C 396.32 238.11 391.49 233.60 392.02 228.07 C 393.28 223.77 396.06 219.71 395.10 215.01 C 395.22 211.54 392.94 208.90 390.51 206.75 C 390.89 205.39 391.28 204.02 391.71 202.68 Z" fill="#acf1cb" opacity="1.00" stroke="#acf1cb" stroke-width="0.25"/>
<path d="M 332.34 196.59 C 333.94 196.31 334.84 198.02 335.88 198.92 L 336.13 199.74 C 336.73 201.96 337.45 204.17 338.78 206.07 C 340.75 209.44 343.05 212.60 344.98 216.00 C 346.08 217.58 345.10 219.50 344.88 221.19 C 343.21 219.32 342.37 216.94 341.18 214.78 C 337.63 212.26 332.63 212.66 329.27 209.73 C 327.37 208.07 325.90 205.31 326.93 202.80 C 328.02 200.24 329.94 197.99 332.34 196.59 Z" fill="#b4f5d1" opacity="1.00" stroke="#b4f5d1" stroke-width="0.25"/>
<path d="M 398.22 198.53 C 400.19 198.23 402.16 197.92 404.14 197.61 C 405.96 198.74 407.83 200.06 410.03 200.30 C 412.30 200.22 414.36 199.11 416.48 198.38 C 413.46 203.57 406.95 200.95 402.19 201.01 C 401.34 222.99 402.27 245.01 401.90 267.00 C 402.02 271.20 401.44 276.11 404.44 279.51 C 408.61 282.17 414.73 280.80 418.27 284.69 C 419.49 287.68 419.42 291.27 418.26 294.27 C 416.42 296.78 412.86 296.37 410.17 295.91 C 407.09 295.22 403.67 294.92 401.16 292.82 C 405.65 293.56 410.25 294.89 414.81 294.02 C 419.58 293.13 419.33 285.35 415.03 283.95 C 411.78 282.83 408.29 282.75 404.95 281.96 C 402.83 280.44 400.58 278.62 400.06 275.91 C 398.59 269.05 399.18 261.96 399.06 255.00 C 399.32 241.67 398.65 228.33 399.10 215.00 C 399.28 209.49 398.11 204.04 398.22 198.53 Z" fill="#c2f4dd" opacity="1.00" stroke="#c2f4dd" stroke-width="0.25"/>
<path d="M 336.13 199.74 C 343.25 207.65 349.91 216.27 359.14 221.86 C 362.99 220.84 367.07 220.93 370.87 219.73 C 374.79 216.35 377.79 211.92 382.33 209.22 C 379.31 213.70 373.48 217.17 374.18 223.26 C 376.92 224.24 380.21 224.56 382.33 226.69 C 384.72 233.88 382.91 241.59 383.11 249.00 C 383.37 258.50 382.26 268.06 383.55 277.52 L 383.77 278.28 C 383.25 277.96 382.22 277.30 381.70 276.98 C 381.18 260.55 382.48 244.07 381.26 227.69 C 378.89 227.15 375.82 225.50 373.82 227.72 C 372.47 230.96 372.69 234.57 372.61 238.00 C 372.71 246.00 372.66 254.00 372.70 262.00 C 372.67 266.67 373.39 271.46 371.96 276.00 C 368.45 275.52 365.03 274.60 361.67 273.48 C 364.90 273.27 368.84 274.69 371.61 272.62 C 372.83 256.56 370.45 240.34 372.60 224.31 C 370.43 223.51 368.29 222.38 365.94 222.27 C 363.47 222.51 361.27 223.75 359.03 224.72 C 354.05 221.21 349.23 217.34 345.43 212.55 C 343.53 210.08 341.21 208.00 338.78 206.07 C 337.45 204.17 336.73 201.96 336.13 199.74 Z" fill="#84e5ad" opacity="1.00" stroke="#84e5ad" stroke-width="0.25"/>
<path d="M 382.33 209.22 C 384.84 207.15 387.35 205.06 389.99 203.16 C 390.42 203.04 391.28 202.80 391.71 202.68 C 391.28 204.02 390.89 205.39 390.51 206.75 C 392.94 208.90 395.22 211.54 395.10 215.01 C 396.06 219.71 393.28 223.77 392.02 228.07 C 391.49 233.60 396.32 238.11 395.64 243.69 C 394.80 253.26 394.66 262.93 395.49 272.49 C 395.67 276.11 398.16 278.95 401.01 280.91 C 395.33 279.13 389.44 278.22 383.55 277.52 C 382.26 268.06 383.37 258.50 383.11 249.00 C 382.91 241.59 384.72 233.88 382.33 226.69 C 380.21 224.56 376.92 224.24 374.18 223.26 C 373.48 217.17 379.31 213.70 382.33 209.22 Z" fill="#9df3c2" opacity="1.00" stroke="#9df3c2" stroke-width="0.25"/>
<path d="M 316.36 224.18 C 316.71 222.26 316.80 219.35 319.23 218.99 C 322.46 217.83 325.59 221.05 325.52 224.20 C 326.05 237.72 325.20 251.25 325.17 264.77 C 331.23 266.48 337.43 267.68 343.73 267.87 C 343.84 256.51 343.94 245.15 343.40 233.81 C 343.36 230.22 343.12 225.77 346.42 223.43 C 347.86 222.13 349.83 223.00 351.50 223.18 C 352.04 237.13 351.62 251.09 351.69 265.04 C 351.76 267.24 352.08 269.43 352.39 271.62 C 355.47 272.29 358.57 272.91 361.67 273.48 C 365.03 274.60 368.45 275.52 371.96 276.00 C 373.39 271.46 372.67 266.67 372.70 262.00 C 372.66 254.00 372.71 246.00 372.61 238.00 C 372.69 234.57 372.47 230.96 373.82 227.72 C 375.82 225.50 378.89 227.15 381.26 227.69 C 382.48 244.07 381.18 260.55 381.70 276.98 C 382.22 277.30 383.25 277.96 383.77 278.28 C 389.46 280.36 395.65 280.77 401.43 282.68 C 401.87 284.01 402.32 285.34 402.77 286.68 C 397.00 287.19 391.13 287.62 385.41 286.46 C 378.52 285.11 371.77 282.76 364.67 282.76 C 360.62 282.33 356.57 281.66 352.74 280.25 C 344.46 276.97 335.29 277.43 326.98 274.23 C 322.62 271.82 318.19 269.04 313.02 269.00 C 307.60 268.81 300.36 267.82 298.90 261.51 C 300.79 261.20 302.69 260.88 304.60 260.69 C 308.34 261.36 312.13 261.72 315.94 261.85 C 316.96 256.27 316.16 250.62 316.19 245.01 C 316.32 238.06 315.88 231.11 316.36 224.18 Z" fill="#4fbb7b" opacity="1.00" stroke="#4fbb7b" stroke-width="0.25"/>
<path d="M 202.94 222.96 C 205.65 219.09 210.90 219.68 215.04 219.86 C 220.20 220.03 224.00 225.76 222.71 230.63 C 221.46 236.29 216.51 239.84 212.37 243.40 C 210.86 244.29 211.23 246.11 211.11 247.59 C 217.19 249.66 223.44 251.17 229.77 252.24 C 233.11 252.90 237.25 254.06 238.29 257.78 C 239.78 262.71 238.95 267.93 239.07 273.00 C 239.40 303.67 238.86 334.34 239.20 365.01 C 239.06 368.65 239.49 373.73 235.40 375.42 C 230.27 377.33 224.72 375.59 219.64 374.33 C 214.99 372.93 209.99 372.59 205.58 370.45 C 202.52 369.05 201.14 365.79 199.57 363.04 C 195.34 362.42 193.32 368.06 189.06 367.05 C 180.65 366.02 172.47 363.72 164.25 361.76 C 160.44 361.08 159.06 356.84 155.93 355.17 C 152.64 355.93 149.45 357.58 145.98 357.01 C 138.53 356.27 131.02 355.42 123.84 353.21 C 119.74 352.10 117.27 348.41 114.00 345.98 C 110.80 347.08 107.51 348.81 104.03 348.11 C 95.69 346.59 87.37 344.95 79.15 342.88 C 77.50 342.42 75.56 341.76 75.01 339.94 C 72.73 333.62 74.35 326.77 73.51 320.24 C 72.84 315.16 72.72 309.80 75.05 305.10 C 76.22 301.93 79.87 300.71 82.99 300.83 C 89.76 301.04 96.19 303.46 102.66 305.25 C 105.93 306.31 109.76 307.16 111.73 310.29 C 114.39 314.13 111.66 319.53 114.61 323.17 C 115.01 315.44 116.06 307.74 115.92 299.98 C 116.40 293.97 116.89 287.97 116.75 281.94 C 116.24 277.64 120.56 273.68 124.75 274.23 C 132.86 275.14 140.71 277.48 148.62 279.39 C 151.46 280.02 154.83 281.75 155.05 285.03 C 155.33 290.23 154.87 295.65 157.21 300.49 C 161.60 299.19 166.11 297.47 170.77 298.22 C 177.33 299.26 183.81 300.88 190.16 302.82 C 192.42 303.67 195.18 304.33 196.39 306.65 C 198.43 310.19 197.24 314.71 199.48 318.14 C 201.35 309.88 200.78 301.34 201.55 292.96 C 200.87 282.39 201.42 271.65 198.40 261.37 C 193.92 260.41 190.73 264.14 188.13 267.15 C 185.50 269.91 181.98 272.33 178.01 272.19 C 172.63 272.00 167.56 269.98 162.43 268.53 C 157.15 266.82 151.60 265.90 146.55 263.51 C 143.22 262.15 139.88 260.20 136.19 260.27 C 133.30 261.00 130.83 262.80 128.31 264.31 C 124.09 267.06 119.67 269.56 115.81 272.82 C 111.84 276.17 108.90 280.85 104.03 283.03 C 99.71 284.95 94.96 287.17 90.13 286.04 C 87.48 284.73 85.44 282.32 84.21 279.67 C 82.87 276.08 84.13 271.52 87.36 269.35 C 89.19 268.06 91.25 267.15 93.22 266.12 C 100.77 262.36 106.85 256.37 114.08 252.10 C 119.17 249.19 123.48 244.70 129.33 243.31 C 135.12 241.82 140.81 244.45 146.38 245.72 C 155.26 248.47 164.19 254.22 173.82 251.86 C 180.28 248.72 185.60 243.56 189.80 237.79 C 194.47 233.10 198.84 228.15 202.94 222.96 Z" fill="#dbfbee" opacity="1.00" stroke="#dbfbee" stroke-width="0.25"/>
<path d="M 208.40 223.58 C 211.43 223.02 214.92 222.69 217.66 224.36 C 220.99 226.43 219.84 231.34 218.02 234.08 C 214.00 239.05 208.09 242.10 204.27 247.28 C 199.07 254.39 191.71 259.35 185.62 265.60 C 184.06 266.97 182.64 268.69 180.65 269.42 C 176.63 270.28 172.49 269.46 168.59 268.41 C 160.74 266.38 153.32 263.04 145.72 260.27 C 142.34 259.09 138.95 257.31 135.28 257.51 C 130.88 258.36 127.28 261.24 123.61 263.63 C 115.19 269.09 107.40 275.45 99.20 281.22 C 96.58 283.02 93.08 284.77 89.98 283.03 C 87.47 281.44 85.02 277.89 86.94 274.99 C 89.09 270.14 94.96 269.74 98.69 266.68 C 105.95 260.74 114.23 256.25 121.86 250.83 C 124.90 248.69 127.88 245.98 131.75 245.61 C 136.00 245.17 140.21 246.39 144.20 247.74 C 150.94 250.14 157.74 252.34 164.49 254.72 C 167.83 255.75 171.39 256.91 174.91 256.17 C 176.85 255.11 178.30 253.40 179.88 251.89 C 182.68 248.99 186.18 246.83 188.70 243.65 C 192.47 238.78 197.07 234.66 200.98 229.92 C 203.19 227.56 205.23 224.68 208.40 223.58 Z" fill="#9fe1bc" opacity="1.00" stroke="#9fe1bc" stroke-width="0.25"/>
<path d="M 210.38 226.25 C 213.43 224.44 217.81 228.54 215.91 231.65 C 214.79 233.54 213.09 234.99 211.52 236.51 C 201.88 245.53 192.70 255.03 183.34 264.34 C 181.58 266.03 179.55 267.86 176.93 267.77 C 167.01 268.15 158.33 262.64 149.12 259.87 C 143.68 258.12 138.16 254.10 132.23 256.13 C 122.23 261.06 113.81 268.45 104.58 274.59 C 101.25 276.88 98.68 280.41 94.79 281.80 C 91.33 282.91 86.64 279.28 88.57 275.62 C 90.53 272.73 94.06 271.64 96.88 269.80 C 104.73 264.72 112.15 258.99 120.18 254.17 C 125.15 250.91 130.21 245.34 136.78 247.21 C 143.73 249.35 150.77 251.40 157.34 254.59 C 162.04 256.66 167.07 257.92 172.10 258.90 C 174.30 259.26 177.10 259.61 178.66 257.63 C 181.18 254.84 183.35 251.69 186.37 249.38 C 190.35 246.36 193.48 242.43 197.09 239.01 C 199.87 236.40 201.28 232.63 204.27 230.21 C 206.13 228.65 208.11 227.16 210.38 226.25 Z" fill="#55ba7f" opacity="1.00" stroke="#55ba7f" stroke-width="0.25"/>
<path d="M 207.34 252.18 C 212.76 250.33 218.35 253.30 223.75 254.07 C 228.09 255.17 234.04 254.95 236.13 259.78 C 237.19 263.40 236.53 267.27 236.67 271.00 C 236.78 303.02 236.63 335.04 236.69 367.07 C 236.53 369.24 236.79 372.18 234.58 373.43 C 229.87 374.22 225.03 373.61 220.42 372.51 C 215.08 371.26 209.65 369.92 204.86 367.16 C 202.90 359.29 204.01 351.03 204.14 343.00 C 204.13 319.33 204.47 295.66 204.07 271.99 C 203.97 267.01 203.48 261.99 204.07 257.02 C 204.20 254.95 205.55 253.15 207.34 252.18 Z" fill="#94dbb7" opacity="1.00" stroke="#94dbb7" stroke-width="0.25"/>
<path d="M 209.36 253.31 C 214.95 252.57 219.97 255.98 225.43 256.53 C 228.93 257.17 234.63 257.33 234.65 262.15 C 235.64 291.41 235.02 320.72 235.11 349.99 C 234.92 356.11 235.27 362.30 234.28 368.36 C 233.74 371.73 229.52 371.17 226.99 371.11 C 221.08 370.30 215.01 369.71 209.42 367.56 C 205.27 365.83 206.01 360.64 205.80 357.00 C 206.55 326.34 205.78 295.67 206.04 265.01 C 206.00 261.86 205.77 258.63 206.60 255.56 C 206.89 254.29 208.17 253.54 209.36 253.31 Z" fill="#56b87f" opacity="1.00" stroke="#56b87f" stroke-width="0.25"/>
<path d="M 214.17 264.10 C 218.03 262.64 222.07 263.98 225.76 265.26 C 226.05 291.17 226.37 317.08 226.13 343.00 C 225.88 348.86 226.39 354.75 225.54 360.57 C 221.89 360.73 217.42 361.27 214.65 358.35 C 213.24 353.71 213.81 348.77 213.83 344.00 C 214.76 325.01 213.37 306.00 214.13 287.00 C 214.30 279.37 213.29 271.72 214.17 264.10 Z" fill="#8cf6ba" opacity="1.00" stroke="#8cf6ba" stroke-width="0.25"/>
<path d="M 314.82 273.97 C 316.95 273.91 319.09 273.77 321.22 273.72 C 323.14 273.86 325.06 274.00 326.98 274.23 C 335.29 277.43 344.46 276.97 352.74 280.25 C 356.57 281.66 360.62 282.33 364.67 282.76 C 375.38 286.61 386.73 288.15 397.86 290.30 C 403.41 291.51 408.94 294.25 414.73 292.71 C 414.93 290.39 415.65 287.85 414.35 285.72 C 410.29 283.84 405.72 283.76 401.43 282.68 C 395.65 280.77 389.46 280.36 383.77 278.28 L 383.55 277.52 C 389.44 278.22 395.33 279.13 401.01 280.91 C 402.31 281.30 403.63 281.65 404.95 281.96 C 408.29 282.75 411.78 282.83 415.03 283.95 C 419.33 285.35 419.58 293.13 414.81 294.02 C 410.25 294.89 405.65 293.56 401.16 292.82 C 392.99 290.47 384.50 289.67 376.26 287.64 C 365.49 285.04 354.35 284.04 343.84 280.41 C 334.04 278.88 324.39 276.54 314.82 273.97 Z" fill="#95ddb5" opacity="1.00" stroke="#95ddb5" stroke-width="0.25"/>
<path d="M 118.74 282.94 C 118.43 279.14 122.36 276.25 125.91 276.84 C 134.98 277.78 143.52 281.31 152.54 282.58 C 153.88 286.58 153.34 290.82 153.43 294.96 C 153.93 308.63 153.47 322.32 153.83 336.00 C 153.74 341.18 154.24 346.43 153.44 351.57 C 152.16 353.82 149.67 355.42 147.05 355.40 C 140.23 355.65 133.72 353.33 127.10 352.10 C 124.64 351.50 121.61 351.18 120.23 348.73 C 116.74 343.13 117.78 336.26 117.64 329.99 C 117.44 324.65 118.39 319.37 118.66 314.05 C 118.78 303.68 118.47 293.30 118.74 282.94 Z" fill="#bdf0d6" opacity="1.00" stroke="#bdf0d6" stroke-width="0.25"/>
<path d="M 123.26 279.10 C 126.92 277.69 131.06 279.51 134.77 280.20 C 139.37 281.77 144.30 282.31 148.77 284.20 C 151.59 286.94 150.54 291.44 150.81 294.99 C 151.54 311.65 151.13 328.35 151.28 345.03 C 150.99 347.88 151.41 352.24 147.96 353.29 C 140.34 354.40 132.96 351.47 125.79 349.31 C 121.19 348.33 120.89 342.83 120.62 339.04 C 120.55 322.01 120.55 304.98 120.70 287.95 C 121.13 285.00 120.69 281.15 123.26 279.10 Z" fill="#53b47b" opacity="1.00" stroke="#53b47b" stroke-width="0.25"/>
<path d="M 364.67 282.76 C 371.77 282.76 378.52 285.11 385.41 286.46 C 391.13 287.62 397.00 287.19 402.77 286.68 C 402.32 285.34 401.87 284.01 401.43 282.68 C 405.72 283.76 410.29 283.84 414.35 285.72 C 415.65 287.85 414.93 290.39 414.73 292.71 C 408.94 294.25 403.41 291.51 397.86 290.30 C 386.73 288.15 375.38 286.61 364.67 282.76 Z" fill="#5cba85" opacity="1.00" stroke="#5cba85" stroke-width="0.25"/>
<path d="M 265.62 288.64 C 267.09 284.69 272.12 284.30 275.61 285.41 C 282.05 287.26 288.91 287.94 294.89 291.14 C 296.46 291.85 298.04 292.93 299.86 292.64 C 307.86 291.73 315.77 294.00 323.54 295.56 C 331.21 298.43 339.35 299.55 347.21 301.76 C 358.77 304.78 370.78 305.94 382.13 309.80 C 388.63 312.08 395.70 311.42 402.21 313.68 C 407.66 315.49 413.73 315.40 418.84 318.14 C 420.43 320.69 420.85 323.86 420.75 326.83 C 420.42 330.01 418.81 334.18 414.96 334.04 C 404.40 334.30 394.32 330.53 383.95 329.16 C 376.81 328.36 370.27 324.15 362.91 325.19 C 365.74 326.83 369.03 327.49 371.83 329.17 C 375.43 333.99 375.20 343.27 368.66 345.46 C 363.65 345.99 358.90 343.60 354.14 342.36 C 352.19 343.97 350.45 345.82 349.00 347.91 C 350.27 349.97 350.77 353.86 353.77 353.86 C 356.38 350.56 359.26 346.67 364.01 346.87 C 370.70 347.84 377.62 348.82 383.54 352.32 C 388.54 353.50 393.86 352.71 398.89 354.04 C 404.28 355.22 409.96 355.59 415.02 357.95 C 420.23 360.72 419.90 367.96 417.66 372.60 C 415.86 376.22 411.04 374.72 407.81 375.45 C 409.92 378.52 414.22 378.40 417.42 379.67 C 419.69 384.04 419.54 389.55 416.59 393.57 C 413.24 396.19 408.81 395.59 404.86 395.44 C 408.70 397.89 414.18 397.02 417.24 400.77 C 419.23 404.15 420.47 409.26 417.35 412.38 C 416.19 413.65 414.76 414.86 412.97 415.03 C 408.13 415.71 403.27 414.71 398.58 413.57 C 385.07 410.32 371.31 408.11 358.00 404.08 C 350.00 401.56 341.56 401.06 333.59 398.46 C 323.81 396.25 314.09 393.82 304.34 391.51 C 299.40 389.70 294.06 390.28 288.99 389.13 C 282.49 387.72 275.95 386.42 269.58 384.51 C 266.58 383.52 263.17 382.02 262.02 378.83 C 261.34 375.68 261.95 371.68 264.96 369.92 C 269.41 366.95 275.02 368.19 280.04 367.75 C 276.09 365.88 271.64 365.29 267.80 363.19 C 265.29 360.53 265.66 356.40 265.95 353.03 C 266.15 349.83 268.95 347.86 270.99 345.75 C 269.13 344.00 267.07 342.42 265.58 340.33 C 263.18 336.01 264.99 329.50 269.91 327.87 C 275.51 325.11 281.36 328.50 287.06 328.93 C 286.24 328.19 285.54 327.19 284.41 326.92 C 279.62 325.51 274.62 325.11 269.75 324.14 C 265.65 321.13 263.46 314.97 266.39 310.41 C 268.26 306.53 273.08 306.57 276.22 304.25 C 272.77 302.88 268.72 302.68 265.82 300.20 C 262.73 297.07 264.27 292.23 265.62 288.64 Z" fill="#ebfcf5" opacity="1.00" stroke="#ebfcf5" stroke-width="0.25"/>
<path d="M 130.61 289.55 C 133.61 288.02 137.14 289.82 140.05 290.87 C 142.58 291.72 142.20 294.84 142.34 296.96 C 142.28 309.98 142.19 323.00 142.33 336.02 C 142.44 338.71 141.92 341.37 140.88 343.85 C 137.42 343.33 133.79 343.06 130.66 341.36 C 129.70 339.39 129.77 337.15 129.68 335.02 C 129.56 322.68 129.87 310.34 129.64 298.00 C 129.71 295.18 129.40 292.19 130.61 289.55 Z" fill="#7ff9b6" opacity="1.00" stroke="#7ff9b6" stroke-width="0.25"/>
<path d="M 271.31 290.16 C 275.19 288.85 279.36 290.76 283.19 291.64 C 286.12 292.75 290.16 293.25 291.52 296.50 C 292.47 299.16 289.49 301.31 287.06 300.93 C 282.20 300.50 277.28 299.94 272.61 298.51 C 269.27 297.48 267.52 291.81 271.31 290.16 Z" fill="#bee8ce" opacity="1.00" stroke="#bee8ce" stroke-width="0.25"/>
<path d="M 303.43 295.47 C 310.78 295.56 318.02 297.48 325.18 299.05 C 344.62 304.48 364.53 307.93 384.07 313.00 C 393.63 314.66 403.06 316.98 412.63 318.61 C 418.99 319.13 419.99 331.61 412.92 331.66 C 401.44 330.85 390.45 327.03 379.24 324.70 C 371.30 323.36 363.71 320.61 355.78 319.28 C 339.17 315.30 322.34 312.27 305.77 308.14 C 303.23 307.61 300.08 305.98 300.30 302.95 C 300.41 300.32 300.77 296.73 303.43 295.47 Z" fill="#a8e5c4" opacity="1.00" stroke="#a8e5c4" stroke-width="0.25"/>
<path d="M 304.30 298.33 C 311.42 297.44 318.15 300.27 324.92 301.90 C 353.49 308.72 382.28 314.58 410.93 320.98 C 415.33 321.14 415.93 329.53 410.99 328.91 C 404.18 328.54 397.82 325.57 391.00 325.15 C 365.22 319.22 339.12 314.57 313.56 307.69 C 310.39 306.84 306.53 306.40 304.70 303.29 C 303.52 301.85 304.16 299.97 304.30 298.33 Z" fill="#5abe83" opacity="1.00" stroke="#5abe83" stroke-width="0.25"/>
<path d="M 168.33 300.62 C 175.93 302.06 183.68 303.43 190.98 306.09 C 194.34 307.13 194.27 311.10 194.37 313.97 C 194.31 326.31 194.25 338.66 194.39 351.00 C 194.30 354.77 194.54 358.68 193.28 362.30 C 191.87 364.22 189.13 364.05 187.01 364.04 C 180.18 363.47 173.56 361.52 166.89 360.03 C 165.07 359.46 162.41 359.15 162.09 356.82 C 160.08 347.77 160.98 338.43 160.58 329.24 C 160.26 322.48 160.18 315.71 160.28 308.94 C 160.35 306.43 160.47 303.42 162.75 301.84 C 164.48 301.01 166.42 300.59 168.33 300.62 Z" fill="#90d9af" opacity="1.00" stroke="#90d9af" stroke-width="0.25"/>
<path d="M 166.27 303.21 C 169.78 302.45 173.39 303.81 176.90 304.24 C 181.59 305.17 187.27 305.48 190.20 309.86 C 192.99 313.26 192.25 317.92 192.38 322.00 C 192.12 333.66 192.83 345.36 191.95 356.99 C 192.13 360.04 188.69 361.42 186.11 361.10 C 180.08 360.46 174.10 359.32 168.22 357.85 C 166.55 357.33 164.21 356.94 163.95 354.82 C 162.52 349.06 163.91 343.11 163.48 337.27 C 162.91 329.18 163.24 321.08 163.02 312.98 C 163.07 309.57 162.77 305.12 166.27 303.21 Z" fill="#51b77c" opacity="1.00" stroke="#51b77c" stroke-width="0.25"/>
<path d="M 78.69 307.01 C 79.02 306.67 79.67 305.98 80.00 305.64 C 89.66 304.54 99.55 306.62 108.42 310.42 C 109.84 317.20 109.36 324.13 109.46 331.00 C 109.49 335.32 109.65 339.67 108.87 343.95 C 102.94 345.46 96.97 343.32 90.99 343.54 C 92.67 343.19 94.35 342.84 96.03 342.50 C 90.46 342.49 85.06 341.06 79.59 340.23 C 77.69 335.71 78.58 330.75 78.42 326.00 C 78.58 319.67 78.09 313.32 78.69 307.01 Z" fill="#53bd7e" opacity="1.00" stroke="#53bd7e" stroke-width="0.25"/>
<path d="M 173.39 312.49 C 176.64 312.05 180.36 311.84 183.24 313.68 C 183.96 316.04 183.67 318.56 183.71 320.99 C 183.49 330.61 183.85 340.23 183.68 349.85 C 183.54 352.74 179.90 352.10 177.94 352.01 C 175.31 351.82 170.94 351.72 171.25 347.98 C 171.13 337.98 171.08 327.96 171.15 317.95 C 171.28 316.02 171.06 313.19 173.39 312.49 Z" fill="#7be1a6" opacity="1.00" stroke="#7be1a6" stroke-width="0.25"/>
<path d="M 271.55 312.64 C 272.82 311.70 274.42 311.40 275.98 311.54 C 287.38 312.65 298.56 315.30 309.60 318.24 C 316.68 319.21 323.68 320.78 330.80 321.47 C 329.89 321.79 328.99 322.11 328.10 322.45 C 341.20 323.71 353.98 327.17 366.34 331.61 C 368.87 333.78 368.99 338.04 367.16 340.73 C 353.88 337.76 340.57 334.86 327.27 331.98 C 321.02 330.72 314.70 329.65 308.70 327.43 C 303.16 325.19 297.06 325.41 291.35 323.81 C 285.17 322.13 278.49 322.26 272.68 319.34 C 271.01 317.72 269.25 314.48 271.55 312.64 Z" fill="#5dc085" opacity="1.00" stroke="#5dc085" stroke-width="0.25"/>
<path d="M 87.44 315.33 C 91.64 314.28 96.57 315.58 99.84 318.30 C 100.70 322.13 99.42 326.28 99.27 330.23 C 99.31 333.55 95.40 333.71 92.99 333.26 C 91.07 332.87 88.05 333.01 87.45 330.63 C 86.70 325.56 87.14 320.41 87.44 315.33 Z" fill="#7ff4b0" opacity="1.00" stroke="#7ff4b0" stroke-width="0.25"/>
<path d="M 174.43 315.36 C 176.80 315.17 179.19 315.21 181.56 315.50 C 182.97 320.55 182.00 325.83 182.24 331.00 C 182.00 337.38 183.12 344.01 180.99 350.17 C 178.31 349.53 174.89 348.85 174.20 345.68 C 173.02 340.54 173.93 335.22 173.72 330.00 C 173.79 325.12 173.07 320.13 174.43 315.36 Z" fill="#9bf0bf" opacity="1.00" stroke="#9bf0bf" stroke-width="0.25"/>
<path d="M 270.49 331.48 C 274.28 329.74 278.50 331.00 282.37 331.74 C 289.26 333.43 296.39 333.88 303.22 335.82 C 310.18 337.83 317.37 338.87 324.36 340.76 C 331.46 342.52 338.99 343.64 345.17 347.82 C 347.78 349.90 347.60 353.74 346.83 356.68 C 343.09 357.00 339.29 357.04 335.62 356.20 C 325.43 353.90 315.12 352.02 305.15 348.86 C 297.37 346.71 289.28 345.90 281.59 343.41 C 277.41 341.95 272.11 342.61 268.87 339.20 C 267.84 336.82 267.52 332.65 270.49 331.48 Z" fill="#9fe0bb" opacity="1.00" stroke="#9fe0bb" stroke-width="0.25"/>
<path d="M 272.83 336.85 C 271.80 334.34 274.66 332.26 276.98 332.71 C 284.40 333.33 291.54 335.78 298.97 336.46 C 311.27 339.35 323.51 342.54 335.83 345.35 C 340.36 346.09 345.48 349.70 344.02 354.90 C 340.71 355.03 337.37 354.80 334.18 353.89 C 328.52 352.36 322.76 351.26 317.04 350.00 C 311.41 348.81 306.11 346.34 300.38 345.58 C 293.51 344.62 287.03 342.00 280.19 340.91 C 277.50 340.24 273.83 339.97 272.83 336.85 Z" fill="#5dc185" opacity="1.00" stroke="#5dc185" stroke-width="0.25"/>
<path d="M 270.39 350.41 C 279.74 349.20 288.86 352.40 297.92 354.21 C 301.04 354.93 304.34 355.27 307.19 356.84 C 310.01 358.54 310.67 362.02 311.75 364.88 C 314.25 364.04 316.55 362.71 319.04 361.86 C 321.77 361.33 324.53 362.10 327.17 362.78 C 337.82 365.96 348.98 367.05 359.60 370.35 C 371.39 373.72 383.60 375.26 395.41 378.51 C 400.75 379.98 406.33 380.52 411.55 382.41 C 414.18 383.25 414.90 386.45 414.14 388.83 C 413.65 391.58 410.19 391.22 408.11 390.98 C 402.62 389.91 397.31 388.12 391.78 387.26 C 378.90 385.05 366.41 381.10 353.59 378.63 C 343.37 376.62 333.42 373.41 323.11 371.87 C 319.92 371.40 316.96 370.01 313.80 369.46 C 310.21 369.44 306.63 370.69 303.05 369.79 C 298.61 368.77 293.98 367.99 289.97 365.71 C 296.27 366.47 302.43 368.53 308.84 368.05 C 308.74 364.90 310.38 360.07 306.49 358.59 C 297.70 354.98 288.23 353.18 278.84 351.91 L 277.99 351.78 C 275.67 351.58 272.56 350.69 270.98 353.00 C 270.03 354.87 269.79 357.29 270.78 359.19 C 273.37 361.65 276.99 362.55 280.28 363.69 C 276.51 363.56 272.35 363.13 269.35 360.62 C 267.56 357.61 267.88 352.86 270.39 350.41 Z" fill="#c3ead3" opacity="1.00" stroke="#c3ead3" stroke-width="0.25"/>
<path d="M 354.92 358.21 C 356.92 354.96 358.51 350.09 363.07 349.96 C 368.20 350.07 373.22 351.58 378.17 352.86 C 381.03 353.40 382.27 356.18 383.55 358.46 C 387.36 356.68 391.52 355.05 395.79 356.18 C 402.49 357.69 409.46 358.52 415.81 361.28 C 416.71 364.87 417.45 369.61 414.29 372.32 C 411.09 373.75 407.49 372.37 404.23 371.79 C 398.63 370.25 392.74 369.85 387.34 367.64 C 382.13 365.47 376.32 365.85 371.00 364.08 C 365.60 362.40 359.00 362.69 354.92 358.21 Z" fill="#d7f5e5" opacity="1.00" stroke="#d7f5e5" stroke-width="0.25"/>
<path d="M 270.98 353.00 C 272.56 350.69 275.67 351.58 277.99 351.78 C 276.52 352.35 275.05 352.95 273.75 353.85 C 272.88 355.61 273.30 357.66 273.21 359.55 C 278.97 362.26 285.32 363.06 291.47 364.45 C 295.76 365.27 300.10 366.77 304.52 366.24 C 307.16 365.68 306.66 362.56 306.81 360.55 C 297.96 356.16 287.98 355.36 278.84 351.91 C 288.23 353.18 297.70 354.98 306.49 358.59 C 310.38 360.07 308.74 364.90 308.84 368.05 C 302.43 368.53 296.27 366.47 289.97 365.71 C 286.72 365.17 283.46 364.56 280.28 363.69 C 276.99 362.55 273.37 361.65 270.78 359.19 C 269.79 357.29 270.03 354.87 270.98 353.00 Z" fill="#99d8b3" opacity="1.00" stroke="#99d8b3" stroke-width="0.25"/>
<path d="M 273.75 353.85 C 275.05 352.95 276.52 352.35 277.99 351.78 L 278.84 351.91 C 287.98 355.36 297.96 356.16 306.81 360.55 C 306.66 362.56 307.16 365.68 304.52 366.24 C 300.10 366.77 295.76 365.27 291.47 364.45 C 285.32 363.06 278.97 362.26 273.21 359.55 C 273.30 357.66 272.88 355.61 273.75 353.85 Z" fill="#5cc285" opacity="1.00" stroke="#5cc285" stroke-width="0.25"/>
<path d="M 359.44 359.32 C 358.70 356.76 358.73 352.55 362.19 352.22 C 367.42 352.14 373.08 352.64 377.64 355.39 C 380.28 356.89 379.86 360.85 377.74 362.52 C 371.54 362.29 365.52 360.47 359.44 359.32 Z" fill="#bee8cf" opacity="1.00" stroke="#bee8cf" stroke-width="0.25"/>
<path d="M 24.64 359.65 C 25.64 359.18 26.63 358.67 27.61 358.18 C 38.81 361.28 49.92 364.83 61.40 366.77 C 72.08 368.48 82.22 372.65 93.00 373.83 C 101.19 374.76 108.97 377.62 117.06 379.07 C 134.71 382.48 152.00 387.52 169.72 390.55 C 174.80 391.35 179.64 393.11 184.59 394.44 C 192.88 396.37 201.34 397.51 209.60 399.55 C 215.68 401.33 221.84 402.81 228.06 404.03 C 234.71 405.28 241.14 407.48 247.85 408.46 C 254.99 409.55 261.85 411.97 268.99 413.16 C 285.28 415.95 301.11 420.85 317.38 423.76 C 329.83 426.94 342.45 429.40 354.97 432.27 C 366.65 436.27 379.03 437.29 390.97 440.27 C 403.80 443.69 416.93 445.89 429.73 449.45 C 441.30 451.45 452.65 454.50 464.11 457.05 C 465.81 457.52 467.68 457.79 469.12 458.91 C 471.30 462.91 470.31 467.65 470.32 472.00 C 469.92 478.66 471.01 485.80 467.93 491.98 C 465.33 496.92 459.10 497.96 454.03 497.65 C 445.59 497.08 437.38 494.80 429.22 492.72 C 416.20 489.55 403.03 487.06 390.02 483.86 C 378.26 480.08 365.87 478.94 354.06 475.34 C 344.53 473.06 335.00 470.75 325.36 468.96 C 318.84 467.76 312.55 465.47 305.96 464.61 C 299.82 463.85 294.22 460.85 288.03 460.37 C 278.67 458.68 269.36 456.65 260.22 454.03 C 254.65 452.72 248.88 452.00 243.73 449.37 C 247.26 449.65 250.79 450.03 254.22 450.95 C 269.08 454.88 284.10 458.18 299.21 461.01 C 339.26 470.62 379.55 479.25 419.71 488.41 C 425.79 489.55 431.92 490.46 437.84 492.31 C 444.84 494.15 452.25 496.68 459.50 494.62 C 465.73 493.07 468.08 485.78 468.38 480.06 C 468.32 474.29 469.10 468.47 468.37 462.74 C 468.16 460.28 465.58 459.74 463.64 459.22 C 441.66 454.28 419.76 448.99 397.76 444.19 C 381.06 439.65 363.85 437.33 347.17 432.74 C 338.98 430.48 330.53 429.34 322.43 426.76 C 313.08 423.77 303.11 423.80 293.71 421.00 C 282.24 417.56 270.36 415.82 258.71 413.12 C 250.97 410.84 242.86 410.21 235.16 407.77 C 230.01 406.22 224.65 405.64 219.42 404.47 C 212.67 403.02 206.11 400.75 199.30 399.57 C 191.87 398.23 184.46 396.72 177.17 394.71 C 160.92 390.78 144.43 387.93 128.28 383.59 C 119.03 381.42 109.55 380.23 100.46 377.39 C 92.09 374.78 83.23 374.41 74.84 371.90 C 71.49 370.94 68.06 370.36 64.63 369.83 C 64.83 369.30 65.04 368.78 65.25 368.26 C 51.57 367.85 38.42 363.66 25.38 359.84 L 24.64 359.65 Z" fill="#6b8092" opacity="1.00" stroke="#6b8092" stroke-width="0.25"/>
<path d="M 389.96 358.95 C 394.27 357.00 399.04 358.67 403.41 359.55 C 406.55 360.36 409.93 360.59 412.83 362.15 C 414.88 364.50 413.87 367.88 413.54 370.66 C 408.20 371.17 403.30 368.64 398.13 367.82 C 394.96 367.11 391.50 367.06 388.69 365.29 C 387.58 363.32 387.50 359.93 389.96 358.95 Z" fill="#c0e8d1" opacity="1.00" stroke="#c0e8d1" stroke-width="0.25"/>
<path d="M 25.38 359.84 C 38.42 363.66 51.57 367.85 65.25 368.26 C 65.04 368.78 64.83 369.30 64.63 369.83 C 68.06 370.36 71.49 370.94 74.84 371.90 C 83.23 374.41 92.09 374.78 100.46 377.39 C 109.55 380.23 119.03 381.42 128.28 383.59 C 144.43 387.93 160.92 390.78 177.17 394.71 C 184.46 396.72 191.87 398.23 199.30 399.57 C 206.11 400.75 212.67 403.02 219.42 404.47 C 224.65 405.64 230.01 406.22 235.16 407.77 C 242.86 410.21 250.97 410.84 258.71 413.12 C 270.36 415.82 282.24 417.56 293.71 421.00 C 303.11 423.80 313.08 423.77 322.43 426.76 C 330.53 429.34 338.98 430.48 347.17 432.74 C 363.85 437.33 381.06 439.65 397.76 444.19 C 419.76 448.99 441.66 454.28 463.64 459.22 C 465.58 459.74 468.16 460.28 468.37 462.74 C 469.10 468.47 468.32 474.29 468.38 480.06 C 468.08 485.78 465.73 493.07 459.50 494.62 C 452.25 496.68 444.84 494.15 437.84 492.31 C 431.92 490.46 425.79 489.55 419.71 488.41 C 379.55 479.25 339.26 470.62 299.21 461.01 C 284.10 458.18 269.08 454.88 254.22 450.95 C 250.79 450.03 247.26 449.65 243.73 449.37 C 236.51 447.21 228.93 446.71 221.68 444.67 C 213.43 443.01 205.19 441.34 197.09 439.04 C 188.68 436.54 179.89 435.87 171.44 433.60 C 161.53 431.05 151.57 428.47 141.37 427.50 C 142.15 427.15 142.94 426.81 143.73 426.50 C 137.67 426.24 131.94 424.08 125.99 423.15 C 119.77 422.17 113.82 420.07 107.69 418.72 C 101.52 417.33 95.05 417.22 89.09 414.93 C 84.91 413.29 80.39 412.99 75.99 412.39 C 67.19 410.96 58.73 407.99 50.03 406.11 C 43.22 405.27 35.98 403.98 30.60 399.39 C 27.97 396.40 25.99 392.79 24.80 388.99 C 23.99 384.71 24.46 380.32 24.36 376.00 C 24.49 370.61 23.77 365.08 25.38 359.84 Z" fill="#c8d3d9" opacity="1.00" stroke="#c8d3d9" stroke-width="0.25"/>
<path d="M 268.34 373.82 C 269.79 373.08 271.28 372.28 272.97 372.49 C 277.82 372.65 282.70 373.29 287.41 374.51 C 290.13 375.51 292.82 376.59 295.55 377.56 C 295.65 380.03 295.73 382.50 295.80 384.97 C 291.91 386.13 288.01 384.71 284.23 383.87 C 279.28 382.62 274.13 382.36 269.28 380.69 C 268.72 378.44 268.46 376.13 268.34 373.82 Z" fill="#66bf86" opacity="1.00" stroke="#66bf86" stroke-width="0.25"/>
<path d="M 287.41 374.51 C 290.74 373.24 294.75 374.13 297.02 376.94 C 298.71 378.49 299.78 381.05 302.12 381.70 C 305.38 380.80 308.46 378.81 311.98 379.27 C 328.50 380.90 344.05 387.17 360.37 389.92 C 367.28 391.25 374.05 393.27 381.03 394.21 C 389.02 395.30 396.86 397.23 404.60 399.46 C 407.91 400.46 411.50 400.76 414.55 402.48 C 417.88 404.87 417.09 410.62 413.57 412.42 C 405.73 414.00 398.21 410.56 390.62 409.21 C 379.73 407.05 368.85 404.76 358.18 401.65 C 349.66 399.12 340.79 398.06 332.25 395.61 C 324.66 393.99 317.14 392.14 309.62 390.26 C 305.91 389.54 304.62 385.66 302.81 382.86 C 300.53 384.13 298.56 385.86 296.42 387.33 C 293.27 388.33 289.90 387.28 286.87 386.27 C 289.84 385.92 292.82 385.71 295.81 385.71 L 295.80 384.97 C 295.73 382.50 295.65 380.03 295.55 377.56 C 292.82 376.59 290.13 375.51 287.41 374.51 Z" fill="#c5ebd6" opacity="1.00" stroke="#c5ebd6" stroke-width="0.25"/>
<path d="M 481.79 374.80 C 484.48 380.26 486.54 385.99 488.33 391.81 C 488.85 390.51 489.38 389.21 489.93 387.92 C 490.11 391.48 490.17 395.05 490.00 398.62 C 489.24 399.02 488.40 399.31 487.78 399.92 C 484.16 404.99 482.84 411.22 481.93 417.28 C 481.43 403.12 481.54 388.95 481.79 374.80 Z" fill="#b4c5d4" opacity="1.00" stroke="#b4c5d4" stroke-width="0.25"/>
<path d="M 231.36 429.03 C 231.05 423.87 233.20 418.88 236.74 415.20 C 238.46 415.34 240.21 415.34 241.91 415.75 C 244.10 417.46 246.06 419.56 247.42 422.01 C 247.94 426.29 248.01 430.69 247.41 434.97 C 244.94 438.87 239.45 439.65 235.60 437.48 C 233.41 435.22 231.02 432.40 231.36 429.03 Z" fill="#183752" opacity="1.00" stroke="#183752" stroke-width="0.25"/>
<path d="M 0.00 421.49 C 5.98 422.47 11.93 423.68 17.76 425.35 C 33.66 429.25 49.55 433.25 65.60 436.51 C 82.00 439.85 98.17 444.21 114.57 447.54 C 128.55 451.14 142.68 454.09 156.73 457.40 C 163.09 458.85 169.72 460.09 175.27 463.74 C 180.25 466.75 184.11 471.18 188.03 475.40 C 190.86 474.44 194.50 473.77 195.65 470.58 C 197.69 464.71 198.66 458.48 198.97 452.28 C 194.68 450.95 190.34 449.84 185.94 448.93 C 173.31 446.25 160.76 443.22 148.08 440.76 C 145.63 440.41 143.45 439.24 141.47 437.81 C 156.10 439.95 170.37 444.04 184.85 446.98 C 190.21 448.23 195.73 449.00 200.80 451.21 C 200.50 457.87 200.78 464.81 198.11 471.07 C 196.78 474.53 193.14 476.22 189.82 477.24 C 187.25 478.37 185.46 475.63 183.80 474.14 C 179.46 469.32 174.82 464.39 168.45 462.36 C 162.80 459.90 156.62 459.14 150.68 457.67 C 143.84 456.00 136.94 454.61 130.06 453.15 C 110.27 448.13 90.33 443.66 70.30 439.68 C 64.18 438.54 58.33 436.31 52.22 435.13 C 41.49 433.41 31.06 430.27 20.50 427.78 C 13.79 425.83 6.99 424.14 0.00 423.56 L 0.00 421.49 Z" fill="#9eafbf" opacity="1.00" stroke="#9eafbf" stroke-width="0.25"/>
<path d="M 0.00 423.56 C 6.99 424.14 13.79 425.83 20.50 427.78 C 31.06 430.27 41.49 433.41 52.22 435.13 C 58.33 436.31 64.18 438.54 70.30 439.68 C 90.33 443.66 110.27 448.13 130.06 453.15 C 136.94 454.61 143.84 456.00 150.68 457.67 C 156.62 459.14 162.80 459.90 168.45 462.36 C 170.46 464.76 172.12 467.42 174.03 469.89 C 169.06 468.68 163.95 468.14 159.01 466.83 C 148.92 463.65 138.29 462.14 127.72 462.14 C 115.02 460.25 102.61 456.84 90.17 453.77 C 78.66 452.05 67.59 448.36 56.21 446.05 C 47.84 444.01 39.37 442.40 31.07 440.07 C 20.83 437.21 10.26 435.81 0.00 433.06 L 0.00 423.56 Z" fill="#103955" opacity="1.00" stroke="#103955" stroke-width="0.25"/>
<path d="M 0.00 433.06 C 10.26 435.81 20.83 437.21 31.07 440.07 C 39.37 442.40 47.84 444.01 56.21 446.05 C 53.72 446.04 51.23 446.18 48.75 446.16 C 41.85 444.75 35.07 442.75 28.07 441.81 C 23.88 441.26 19.74 440.35 15.65 439.27 C 10.43 437.87 4.63 438.09 0.00 434.93 L 0.00 433.06 Z" fill="#2874a2" opacity="1.00" stroke="#2874a2" stroke-width="0.25"/>
<path d="M 0.00 434.93 C 4.63 438.09 10.43 437.87 15.65 439.27 C 19.74 440.35 23.88 441.26 28.07 441.81 C 35.07 442.75 41.85 444.75 48.75 446.16 C 53.58 447.23 58.42 448.32 63.13 449.87 C 72.16 452.94 81.83 453.33 90.89 456.31 C 97.11 458.44 103.66 459.31 110.00 461.01 C 117.82 463.08 125.91 463.85 133.65 466.25 C 142.92 468.38 152.44 469.56 161.48 472.62 C 167.19 474.15 167.05 483.68 161.50 485.32 C 158.17 486.54 154.91 488.03 152.32 490.53 C 147.94 492.48 143.40 494.06 138.97 495.90 C 131.36 498.87 124.17 502.98 116.11 504.67 C 117.45 505.07 118.79 505.46 120.15 505.81 C 93.59 505.91 67.02 505.63 40.46 505.85 C 37.28 501.15 32.62 497.67 27.37 495.60 C 22.44 492.80 17.91 489.24 12.48 487.42 C 7.82 485.81 3.51 483.25 0.00 479.77 L 0.00 434.93 Z" fill="#409dd9" opacity="1.00" stroke="#409dd9" stroke-width="0.25"/>
<path d="M 48.75 446.16 C 51.23 446.18 53.72 446.04 56.21 446.05 C 67.59 448.36 78.66 452.05 90.17 453.77 C 102.61 456.84 115.02 460.25 127.72 462.14 C 132.70 463.77 137.73 465.24 142.91 466.05 C 148.65 467.01 154.15 468.99 159.84 470.15 C 162.71 471.10 165.65 472.10 168.12 473.91 C 170.48 475.67 171.62 478.49 173.00 480.99 C 169.59 484.25 165.19 486.06 161.06 488.19 C 158.18 489.08 155.24 489.78 152.32 490.53 C 154.91 488.03 158.17 486.54 161.50 485.32 C 167.05 483.68 167.19 474.15 161.48 472.62 C 152.44 469.56 142.92 468.38 133.65 466.25 C 125.91 463.85 117.82 463.08 110.00 461.01 C 103.66 459.31 97.11 458.44 90.89 456.31 C 81.83 453.33 72.16 452.94 63.13 449.87 C 58.42 448.32 53.58 447.23 48.75 446.16 Z" fill="#2c87b7" opacity="1.00" stroke="#2c87b7" stroke-width="0.25"/>
<path d="M 200.80 451.21 C 203.05 452.64 203.87 455.21 204.71 457.59 C 207.70 455.52 210.07 452.26 213.86 451.62 C 212.82 452.64 211.75 453.63 210.68 454.63 C 209.99 461.44 211.87 468.91 208.12 475.09 C 205.59 479.34 202.75 484.00 197.87 485.80 C 189.67 488.87 181.42 491.82 173.03 494.31 C 167.99 496.25 163.07 498.53 157.77 499.74 C 158.88 496.32 162.37 494.81 165.35 493.39 C 169.83 491.33 174.85 490.61 179.14 488.12 C 182.71 486.24 182.35 481.49 181.95 478.09 C 181.38 473.89 177.28 471.84 174.03 469.89 C 172.12 467.42 170.46 464.76 168.45 462.36 C 174.82 464.39 179.46 469.32 183.80 474.14 C 185.46 475.63 187.25 478.37 189.82 477.24 C 193.14 476.22 196.78 474.53 198.11 471.07 C 200.78 464.81 200.50 457.87 200.80 451.21 Z" fill="#1e3c56" opacity="1.00" stroke="#1e3c56" stroke-width="0.25"/>
<path d="M 208.12 475.09 C 211.87 468.91 209.99 461.44 210.68 454.63 C 216.49 455.50 222.47 455.31 228.17 456.92 C 241.90 460.98 256.10 463.12 269.95 466.74 C 280.31 468.49 290.58 470.81 300.63 473.88 C 306.33 475.65 312.51 474.93 318.12 477.00 C 320.63 477.72 320.29 480.88 320.53 482.94 C 320.72 490.55 321.22 498.20 320.32 505.78 C 266.22 506.19 212.11 505.79 158.01 506.00 C 153.24 506.16 148.47 506.04 143.71 505.70 C 148.28 503.44 153.10 501.75 157.77 499.74 C 163.07 498.53 167.99 496.25 173.03 494.31 C 181.42 491.82 189.67 488.87 197.87 485.80 C 202.75 484.00 205.59 479.34 208.12 475.09 Z" fill="#c9d3d9" opacity="1.00" stroke="#c9d3d9" stroke-width="0.25"/>
<path d="M 127.72 462.14 C 138.29 462.14 148.92 463.65 159.01 466.83 C 163.95 468.14 169.06 468.68 174.03 469.89 C 177.28 471.84 181.38 473.89 181.95 478.09 C 182.35 481.49 182.71 486.24 179.14 488.12 C 174.85 490.61 169.83 491.33 165.35 493.39 C 162.37 494.81 158.88 496.32 157.77 499.74 C 153.10 501.75 148.28 503.44 143.71 505.70 C 135.86 506.11 128.00 506.20 120.15 505.81 C 118.79 505.46 117.45 505.07 116.11 504.67 C 124.17 502.98 131.36 498.87 138.97 495.90 C 143.40 494.06 147.94 492.48 152.32 490.53 C 155.24 489.78 158.18 489.08 161.06 488.19 C 165.80 486.96 170.93 486.05 174.75 482.75 C 176.76 481.13 176.52 477.92 174.81 476.19 C 171.05 471.94 165.23 470.74 159.84 470.15 C 154.15 468.99 148.65 467.01 142.91 466.05 C 137.73 465.24 132.70 463.77 127.72 462.14 Z" fill="#08446a" opacity="1.00" stroke="#08446a" stroke-width="0.25"/>
<path d="M 159.84 470.15 C 165.23 470.74 171.05 471.94 174.81 476.19 C 176.52 477.92 176.76 481.13 174.75 482.75 C 170.93 486.05 165.80 486.96 161.06 488.19 C 165.19 486.06 169.59 484.25 173.00 480.99 C 171.62 478.49 170.48 475.67 168.12 473.91 C 165.65 472.10 162.71 471.10 159.84 470.15 Z" fill="#0d618b" opacity="1.00" stroke="#0d618b" stroke-width="0.25"/>
<path d="M 0.00 479.77 C 3.51 483.25 7.82 485.81 12.48 487.42 C 17.91 489.24 22.44 492.80 27.37 495.60 C 17.83 493.34 9.44 487.97 0.00 485.43 L 0.00 479.77 Z" fill="#085987" opacity="1.00" stroke="#085987" stroke-width="0.25"/>
<path d="M 0.00 485.43 C 9.44 487.97 17.83 493.34 27.37 495.60 C 32.62 497.67 37.28 501.15 40.46 505.85 C 34.53 505.73 28.56 506.21 22.67 505.43 C 18.79 504.30 15.40 501.96 11.70 500.40 C 7.63 498.68 3.59 496.84 0.00 494.24 L 0.00 485.43 Z" fill="#0d3e5e" opacity="1.00" stroke="#0d3e5e" stroke-width="0.25"/>
<path d="M 478.00 497.62 C 476.01 495.35 474.21 490.12 478.36 489.12 C 478.40 490.67 478.51 492.23 478.63 493.79 C 480.12 493.25 481.62 492.73 483.09 492.12 C 482.98 495.07 480.98 497.34 478.00 497.62 Z" fill="#33506b" opacity="1.00" stroke="#33506b" stroke-width="0.25"/>
<path d="M 343.94 505.55 C 344.61 502.86 347.91 503.62 349.97 503.36 C 354.75 503.56 359.77 502.88 364.39 504.29 C 364.56 504.60 364.90 505.24 365.07 505.55 C 358.04 506.13 350.96 506.30 343.94 505.55 Z" fill="#4c687d" opacity="1.00" stroke="#4c687d" stroke-width="0.25"/>
</svg>