<svg width="680" height="560" viewBox="0 0 680 560" xmlns="http://www.w3.org/2000/svg" font-family="'Inter','Helvetica Neue',system-ui,sans-serif">
<title>Syax — Diagrama ER (schema billing)</title>
<defs>
  <marker id="arr" viewBox="0 0 10 10" refX="8" refY="5" markerWidth="6" markerHeight="6" orient="auto-start-reverse">
    <path d="M2 1L8 5L2 9" fill="none" stroke="context-stroke" stroke-width="1.5" stroke-linecap="round" stroke-linejoin="round"/>
  </marker>
  <marker id="many" viewBox="0 0 12 10" refX="0" refY="5" markerWidth="8" markerHeight="8" orient="auto">
    <path d="M10 1L2 5L10 9M10 5L2 5" fill="none" stroke="context-stroke" stroke-width="1.5" stroke-linecap="round"/>
  </marker>
</defs>
<rect width="680" height="560" fill="#FAFAF9"/>
<text x="340" y="22" text-anchor="middle" font-size="14" font-weight="500" fill="#2C2C2A">Diagrama ER — schema billing</text>

<!-- Legend -->
<line x1="440" y1="15" x2="460" y2="15" stroke="#1D9E75" stroke-width="2"/>
<text x="464" y="19" font-size="9" fill="#73726C">FK declarada</text>
<line x1="540" y1="15" x2="560" y2="15" stroke="#888780" stroke-width="1.5" stroke-dasharray="4,3"/>
<text x="564" y="19" font-size="9" fill="#73726C">ref. sem FK</text>

<!-- ============================================================
     ENTITY BOXES
     Col A: x=10-200   Col B: x=240-430   Col C: x=470-660
     ============================================================ -->

<!-- public.tenant (Col B, top — referenciado por tudo) -->
<rect x="240" y="34" width="192" height="88" rx="6" fill="#F1EFE8" stroke="#B4B2A9" stroke-width="1"/>
<rect x="240" y="34" width="192" height="26" rx="6" fill="#D3D1C7"/>
<rect x="240" y="54" width="192" height="6" fill="#D3D1C7"/>
<text x="336" y="47" text-anchor="middle" dominant-baseline="central" font-size="11" font-weight="500" fill="#2C2C2A">public.tenant</text>
<text x="252" y="68" font-size="10" fill="#444441">PK  id</text>
<text x="252" y="82" font-size="10" fill="#444441">    name · cnpj · status</text>
<text x="252" y="96" font-size="10" fill="#444441">    trialStartedAt · trialExpiresAt</text>
<text x="252" y="110" font-size="10" fill="#73726C" font-style="italic">    (schema principal — sem FK)</text>

<!-- billing.plan (Col A, top) -->
<rect x="10" y="34" width="192" height="78" rx="6" fill="#E6F1FB" stroke="#378ADD" stroke-width="0.75"/>
<rect x="10" y="34" width="192" height="26" rx="6" fill="#B5D4F4"/>
<rect x="10" y="54" width="192" height="6" fill="#B5D4F4"/>
<text x="106" y="47" text-anchor="middle" dominant-baseline="central" font-size="11" font-weight="500" fill="#0C447C">billing.plan</text>
<text x="22" y="68" font-size="10" fill="#444441">PK  id</text>
<text x="22" y="82" font-size="10" fill="#444441">    name · description</text>
<text x="22" y="96" font-size="10" fill="#444441">    monthly_value · active</text>

<!-- billing.subscription (Col A, middle) -->
<rect x="10" y="152" width="192" height="130" rx="6" fill="#E6F1FB" stroke="#378ADD" stroke-width="0.75"/>
<rect x="10" y="152" width="192" height="26" rx="6" fill="#B5D4F4"/>
<rect x="10" y="172" width="192" height="6" fill="#B5D4F4"/>
<text x="106" y="165" text-anchor="middle" dominant-baseline="central" font-size="11" font-weight="500" fill="#0C447C">billing.subscription</text>
<text x="22" y="186" font-size="10" fill="#444441">PK  id</text>
<text x="22" y="200" font-size="10" fill="#444441">FK  plan_id → billing.plan</text>
<text x="22" y="214" font-size="10" fill="#73726C">    tenant_id (ref.)</text>
<text x="22" y="228" font-size="10" fill="#444441">    status · billing_cycle · value</text>
<text x="22" y="242" font-size="10" fill="#444441">    asaas_customer_id</text>
<text x="22" y="256" font-size="10" fill="#444441">    asaas_subscription_id</text>
<text x="22" y="270" font-size="10" fill="#444441">    trial_started/expires_at</text>

<!-- billing.trial_engagement (Col A, bottom) -->
<rect x="10" y="326" width="192" height="90" rx="6" fill="#E6F1FB" stroke="#378ADD" stroke-width="0.75"/>
<rect x="10" y="326" width="192" height="26" rx="6" fill="#B5D4F4"/>
<rect x="10" y="346" width="192" height="6" fill="#B5D4F4"/>
<text x="106" y="339" text-anchor="middle" dominant-baseline="central" font-size="11" font-weight="500" fill="#0C447C">billing.trial_engagement</text>
<text x="22" y="360" font-size="10" fill="#444441">PK  id</text>
<text x="22" y="374" font-size="10" fill="#73726C">    tenant_id (ref.)</text>
<text x="22" y="388" font-size="10" fill="#444441">    feature_key · access_count</text>
<text x="22" y="402" font-size="10" fill="#444441">    UNIQUE(tenant_id, feature_key)</text>

<!-- billing.partner (Col C, top) -->
<rect x="470" y="34" width="200" height="120" rx="6" fill="#FAEEDA" stroke="#BA7517" stroke-width="0.75"/>
<rect x="470" y="34" width="200" height="26" rx="6" fill="#FAC775"/>
<rect x="470" y="54" width="200" height="6" fill="#FAC775"/>
<text x="570" y="47" text-anchor="middle" dominant-baseline="central" font-size="11" font-weight="500" fill="#412402">billing.partner</text>
<text x="482" y="68" font-size="10" fill="#444441">PK  id</text>
<text x="482" y="82" font-size="10" fill="#444441">    referral_code (UNIQUE)</text>
<text x="482" y="96" font-size="10" fill="#444441">    commission_rate · status</text>
<text x="482" y="110" font-size="10" fill="#444441">    pix_key · pix_key_type</text>
<text x="482" y="124" font-size="10" fill="#444441">    bank_code · bank_agency</text>
<text x="482" y="138" font-size="10" fill="#444441">    bank_account · account_type</text>

<!-- billing.partner_referral (Col B, middle) -->
<rect x="240" y="172" width="192" height="145" rx="6" fill="#FAEEDA" stroke="#BA7517" stroke-width="0.75"/>
<rect x="240" y="172" width="192" height="26" rx="6" fill="#FAC775"/>
<rect x="240" y="192" width="192" height="6" fill="#FAC775"/>
<text x="336" y="185" text-anchor="middle" dominant-baseline="central" font-size="11" font-weight="500" fill="#412402">billing.partner_referral</text>
<text x="252" y="206" font-size="10" fill="#444441">PK  id</text>
<text x="252" y="220" font-size="10" fill="#444441">FK  partner_id → billing.partner</text>
<text x="252" y="234" font-size="10" fill="#73726C">    tenant_id (ref.)</text>
<text x="252" y="248" font-size="10" fill="#444441">    status · activation_token</text>
<text x="252" y="262" font-size="10" fill="#444441">    followup_attempts</text>
<text x="252" y="276" font-size="10" fill="#444441">    invited/activated/converted_at</text>
<text x="252" y="290" font-size="10" fill="#444441">    trial_started/expires_at</text>
<text x="252" y="304" font-size="10" fill="#444441">    admin_note</text>

<!-- billing.commission (Col C, middle-bottom) -->
<rect x="470" y="204" width="200" height="195" rx="6" fill="#FCEBEB" stroke="#A32D2D" stroke-width="0.75"/>
<rect x="470" y="204" width="200" height="26" rx="6" fill="#F7C1C1"/>
<rect x="470" y="224" width="200" height="6" fill="#F7C1C1"/>
<text x="570" y="217" text-anchor="middle" dominant-baseline="central" font-size="11" font-weight="500" fill="#501313">billing.commission</text>
<text x="482" y="238" font-size="10" fill="#444441">PK  id</text>
<text x="482" y="252" font-size="10" fill="#444441">FK  partner_id → billing.partner</text>
<text x="482" y="266" font-size="10" fill="#444441">FK  subscription_id → subscription</text>
<text x="482" y="280" font-size="10" fill="#73726C">    tenant_id (ref.)</text>
<text x="482" y="294" font-size="10" fill="#444441">    amount · adjusted_amount</text>
<text x="482" y="308" font-size="10" fill="#444441">    period · status</text>
<text x="482" y="322" font-size="10" fill="#444441">    asaas_payment_id (UNIQUE)</text>
<text x="482" y="336" font-size="10" fill="#444441">    payout_asaas_id (UNIQUE)</text>
<text x="482" y="350" font-size="10" fill="#444441">    commission_model</text>
<text x="482" y="364" font-size="10" fill="#444441">    confirmed_at · paid_at</text>
<text x="482" y="378" font-size="10" fill="#444441">    transfer_failed_reason</text>

<!-- billing.webhook_log (Col B, bottom) -->
<rect x="240" y="366" width="192" height="115" rx="6" fill="#F1EFE8" stroke="#B4B2A9" stroke-width="0.75"/>
<rect x="240" y="366" width="192" height="26" rx="6" fill="#D3D1C7"/>
<rect x="240" y="386" width="192" height="6" fill="#D3D1C7"/>
<text x="336" y="379" text-anchor="middle" dominant-baseline="central" font-size="11" font-weight="500" fill="#2C2C2A">billing.webhook_log</text>
<text x="252" y="400" font-size="10" fill="#444441">PK  id</text>
<text x="252" y="414" font-size="10" fill="#444441">    event_type · asaas_payment_id</text>
<text x="252" y="428" font-size="10" fill="#444441">    status · payload (JSON)</text>
<text x="252" y="442" font-size="10" fill="#444441">    received_at · processed_at</text>
<text x="252" y="456" font-size="10" fill="#444441">    error_message</text>
<text x="252" y="470" font-size="10" fill="#73726C" font-style="italic">    standalone (sem FK)</text>

<!-- ============================================================
     RELATIONSHIP LINES
     ============================================================ -->

<!-- plan 1 ──< subscription (FK: plan_id) -->
<line x1="106" y1="112" x2="106" y2="152" stroke="#378ADD" stroke-width="1.5" marker-end="url(#arr)"/>
<text x="112" y="135" font-size="9" fill="#378ADD">1</text>
<text x="112" y="148" font-size="9" fill="#378ADD">N</text>

<!-- tenant ─── subscription (ref, no FK) -->
<path d="M240 80 L202 80 L202 205 L202 205" fill="none" stroke="#888780" stroke-width="1" stroke-dasharray="4,3" marker-end="url(#arr)"/>
<text x="212" y="150" font-size="9" fill="#888780">N</text>

<!-- tenant ─── partner_referral (ref, no FK) -->
<line x1="336" y1="122" x2="336" y2="172" stroke="#888780" stroke-width="1" stroke-dasharray="4,3" marker-end="url(#arr)"/>
<text x="342" y="150" font-size="9" fill="#888780">N</text>

<!-- tenant ─── trial_engagement (ref, no FK) -->
<path d="M240 98 L218 98 L218 355 L202 355" fill="none" stroke="#888780" stroke-width="1" stroke-dasharray="4,3" marker-end="url(#arr)"/>

<!-- tenant ─── commission (ref, no FK) -->
<path d="M432" fill="none"/>
<path d="M432 80 L456 80 L456 280 L470 280" fill="none" stroke="#888780" stroke-width="1" stroke-dasharray="4,3" marker-end="url(#arr)"/>

<!-- partner 1 ──< partner_referral (FK: partner_id) -->
<line x1="470" y1="100" x2="432" y2="220" fill="none" stroke="#BA7517" stroke-width="1.5" marker-end="url(#arr)"/>
<text x="458" y="163" font-size="9" fill="#BA7517">N</text>

<!-- partner 1 ──< commission (FK: partner_id) -->
<line x1="570" y1="154" x2="570" y2="204" stroke="#BA7517" stroke-width="1.5" marker-end="url(#arr)"/>
<text x="576" y="182" font-size="9" fill="#BA7517">N</text>

<!-- subscription 1 ──< commission (FK: subscription_id) -->
<path d="M202 282 L202 480 L456 480 L456 360 L470 338" fill="none" stroke="#378ADD" stroke-width="1.5" marker-end="url(#arr)"/>
<text x="430" y="420" font-size="9" fill="#378ADD">N</text>
</svg>