<svg width="680" height="610" viewBox="0 0 680 610" xmlns="http://www.w3.org/2000/svg" font-family="'Inter','Helvetica Neue',system-ui,sans-serif">
<title>Syax — Diagrama de Sequência: Conversão e Pagamento</title>
<defs>
  <marker id="arr" viewBox="0 0 10 10" refX="8" refY="5" markerWidth="6" markerHeight="6" orient="auto-start-reverse">
    <path d="M2 1L8 5L2 9" fill="none" stroke="context-stroke" stroke-width="1.5" stroke-linecap="round" stroke-linejoin="round"/>
  </marker>
</defs>
<rect width="680" height="610" fill="#FAFAF9"/>
<text x="340" y="22" text-anchor="middle" font-size="14" font-weight="500" fill="#2C2C2A">Diagrama de Sequência — Conversão Trial → Ativo</text>

<!-- PARTICIPANTS -->
<!-- Centers: Tenant=50, Angular=185, Billing=320, Asaas=455, DB/Redis=617 -->

<rect x="10" y="34" width="80" height="34" rx="6" fill="#E1F5EE" stroke="#1D9E75" stroke-width="0.75"/>
<text x="50" y="51" text-anchor="middle" dominant-baseline="central" font-size="11" font-weight="500" fill="#085041">Tenant</text>

<rect x="145" y="34" width="80" height="34" rx="6" fill="#E6F1FB" stroke="#378ADD" stroke-width="0.75"/>
<text x="185" y="51" text-anchor="middle" dominant-baseline="central" font-size="11" font-weight="500" fill="#0C447C">Angular</text>

<rect x="280" y="34" width="80" height="34" rx="6" fill="#F1EFE8" stroke="#1D9E75" stroke-width="1"/>
<text x="320" y="51" text-anchor="middle" dominant-baseline="central" font-size="11" font-weight="500" fill="#085041">Billing</text>

<rect x="415" y="34" width="80" height="34" rx="6" fill="#FAEEDA" stroke="#BA7517" stroke-width="0.75"/>
<text x="455" y="51" text-anchor="middle" dominant-baseline="central" font-size="11" font-weight="500" fill="#412402">Asaas</text>

<rect x="577" y="34" width="80" height="34" rx="6" fill="#FCEBEB" stroke="#A32D2D" stroke-width="0.75"/>
<text x="617" y="44" text-anchor="middle" dominant-baseline="central" font-size="10" font-weight="500" fill="#501313">DB + Redis</text>

<!-- LIFELINES -->
<line x1="50"  y1="68" x2="50"  y2="578" stroke="#1D9E75" stroke-width="0.75" stroke-dasharray="5,4" opacity="0.4"/>
<line x1="185" y1="68" x2="185" y2="578" stroke="#378ADD" stroke-width="0.75" stroke-dasharray="5,4" opacity="0.4"/>
<line x1="320" y1="68" x2="320" y2="578" stroke="#1D9E75" stroke-width="0.75" stroke-dasharray="5,4" opacity="0.4"/>
<line x1="455" y1="68" x2="455" y2="578" stroke="#BA7517" stroke-width="0.75" stroke-dasharray="5,4" opacity="0.4"/>
<line x1="617" y1="68" x2="617" y2="578" stroke="#A32D2D" stroke-width="0.75" stroke-dasharray="5,4" opacity="0.4"/>

<!-- PHASE LABEL: CONVERSÃO -->
<rect x="10" y="76" width="660" height="18" rx="3" fill="#E1F5EE" opacity="0.5"/>
<text x="340" y="85" text-anchor="middle" dominant-baseline="central" font-size="9" font-weight="600" fill="#0F6E56" letter-spacing="1">FASE 4 — CONVERSÃO</text>

<!-- MSG 1: Tenant → Angular -->
<line x1="50" y1="108" x2="183" y2="108" stroke="#1D9E75" stroke-width="1.5" marker-end="url(#arr)"/>
<text x="117" y="104" text-anchor="middle" font-size="10" fill="#2C2C2A">seleciona plano</text>

<!-- MSG 2: Angular → Billing -->
<line x1="185" y1="130" x2="318" y2="130" stroke="#378ADD" stroke-width="1.5" marker-end="url(#arr)"/>
<text x="252" y="126" text-anchor="middle" font-size="10" fill="#2C2C2A">POST /subscriptions</text>

<!-- Activation box on Billing -->
<rect x="316" y="140" width="8" height="95" fill="#1D9E75" opacity="0.3" rx="2"/>

<!-- MSG 3: Billing → Asaas (create customer) -->
<line x1="324" y1="152" x2="453" y2="152" stroke="#378ADD" stroke-width="1.5" marker-end="url(#arr)"/>
<text x="389" y="148" text-anchor="middle" font-size="10" fill="#2C2C2A">POST /customers</text>

<!-- MSG 4: Asaas → Billing (customer created) -->
<line x1="453" y1="168" x2="326" y2="168" stroke="#888780" stroke-width="1" stroke-dasharray="5,3" marker-end="url(#arr)"/>
<text x="389" y="164" text-anchor="middle" font-size="10" fill="#73726C">{ cus_xxx }</text>

<!-- MSG 5: Billing → Asaas (create subscription) -->
<line x1="324" y1="186" x2="453" y2="186" stroke="#378ADD" stroke-width="1.5" marker-end="url(#arr)"/>
<text x="389" y="182" text-anchor="middle" font-size="10" fill="#2C2C2A">POST /subscriptions</text>

<!-- MSG 6: Asaas → Billing (sub + payment) -->
<line x1="453" y1="202" x2="326" y2="202" stroke="#888780" stroke-width="1" stroke-dasharray="5,3" marker-end="url(#arr)"/>
<text x="389" y="198" text-anchor="middle" font-size="10" fill="#73726C">{ sub_xxx, boletoUrl, PIX }</text>

<!-- MSG 7: Billing → Angular -->
<line x1="316" y1="222" x2="187" y2="222" stroke="#888780" stroke-width="1" stroke-dasharray="5,3" marker-end="url(#arr)"/>
<text x="252" y="218" text-anchor="middle" font-size="10" fill="#73726C">{ boletoUrl, pixQrCode }</text>

<!-- MSG 8: Angular → Tenant -->
<line x1="183" y1="244" x2="52" y2="244" stroke="#888780" stroke-width="1" stroke-dasharray="5,3" marker-end="url(#arr)"/>
<text x="117" y="240" text-anchor="middle" font-size="10" fill="#73726C">exibe boleto + QR Code</text>

<!-- PHASE LABEL: PAGAMENTO -->
<rect x="10" y="260" width="660" height="18" rx="3" fill="#FAEEDA" opacity="0.6"/>
<text x="340" y="269" text-anchor="middle" dominant-baseline="central" font-size="9" font-weight="600" fill="#633806" letter-spacing="1">TENANT PAGA (externo ao sistema)</text>

<!-- MSG 9: Asaas → Billing PAYMENT_RECEIVED -->
<rect x="316" y="290" width="8" height="110" fill="#1D9E75" opacity="0.3" rx="2"/>
<line x1="453" y1="296" x2="326" y2="296" stroke="#F97316" stroke-width="2" marker-end="url(#arr)"/>
<text x="389" y="291" text-anchor="middle" font-size="10" fill="#F97316">PAYMENT_RECEIVED webhook</text>

<!-- MSG 10: Billing → DB/Redis tryAcquire -->
<line x1="324" y1="316" x2="615" y2="316" stroke="#A32D2D" stroke-width="1.5" marker-end="url(#arr)"/>
<text x="470" y="312" text-anchor="middle" font-size="10" fill="#2C2C2A">Redis.tryAcquire(Lua)</text>

<!-- MSG 11: DB/Redis → Billing ok -->
<line x1="615" y1="332" x2="326" y2="332" stroke="#888780" stroke-width="1" stroke-dasharray="5,3" marker-end="url(#arr)"/>
<text x="470" y="328" text-anchor="middle" font-size="10" fill="#73726C">→ 1 (primeiro acesso)</text>

<!-- MSG 12: Billing → DB/Redis ATIVO -->
<line x1="324" y1="352" x2="615" y2="352" stroke="#1D9E75" stroke-width="1.5" marker-end="url(#arr)"/>
<text x="470" y="348" text-anchor="middle" font-size="10" fill="#2C2C2A">status = ATIVO + evict cache</text>

<!-- MSG 13: Billing → DB/Redis commission (async) -->
<line x1="324" y1="372" x2="615" y2="372" stroke="#888780" stroke-width="1" stroke-dasharray="4,4" marker-end="url(#arr)"/>
<text x="470" y="367" text-anchor="middle" font-size="10" fill="#73726C">INSERT commission PENDENTE (async)</text>

<!-- MSG 14: Billing → Redis markDone -->
<line x1="324" y1="392" x2="615" y2="392" stroke="#A32D2D" stroke-width="1" marker-end="url(#arr)"/>
<text x="470" y="388" text-anchor="middle" font-size="10" fill="#2C2C2A">Redis.markDone</text>

<!-- PHASE LABEL: PAYOUT -->
<rect x="10" y="410" width="660" height="18" rx="3" fill="#EEEDFE" opacity="0.6"/>
<text x="340" y="419" text-anchor="middle" dominant-baseline="central" font-size="9" font-weight="600" fill="#3C3489" letter-spacing="1">D+1 — ADMIN APROVA E PROCESSA REPASSE</text>

<!-- Activation on Billing for payout -->
<rect x="316" y="436" width="8" height="100" fill="#7F77DD" opacity="0.3" rx="2"/>

<!-- MSG 15: Admin → Billing process -->
<line x1="320" y1="436" x2="320" y2="436"/>
<text x="340" y="444" text-anchor="start" font-size="10" fill="#73726C">← POST /admin/payouts/process</text>

<!-- MSG 16: Billing → DB/Redis query PENDENTE -->
<line x1="324" y1="460" x2="615" y2="460" stroke="#888780" stroke-width="1" marker-end="url(#arr)"/>
<text x="470" y="456" text-anchor="middle" font-size="10" fill="#2C2C2A">query commissions PENDENTE</text>

<!-- MSG 17: Billing → Asaas transfer -->
<line x1="324" y1="480" x2="453" y2="480" stroke="#BA7517" stroke-width="2" marker-end="url(#arr)"/>
<text x="389" y="476" text-anchor="middle" font-size="10" fill="#2C2C2A">POST /transfers (PIX)</text>

<!-- MSG 18: Billing status EM_TRANSFERENCIA -->
<line x1="324" y1="498" x2="615" y2="498" stroke="#888780" stroke-width="1" marker-end="url(#arr)"/>
<text x="470" y="494" text-anchor="middle" font-size="10" fill="#2C2C2A">status = EM_TRANSFERENCIA</text>

<!-- MSG 19: Asaas TRANSFER_COMPLETED -->
<line x1="453" y1="520" x2="326" y2="520" stroke="#F97316" stroke-width="2" marker-end="url(#arr)"/>
<text x="389" y="515" text-anchor="middle" font-size="10" fill="#F97316">TRANSFER_COMPLETED</text>

<!-- MSG 20: Billing commission PAGO -->
<line x1="324" y1="540" x2="615" y2="540" stroke="#1D9E75" stroke-width="1.5" marker-end="url(#arr)"/>
<text x="470" y="536" text-anchor="middle" font-size="10" fill="#2C2C2A">commission = PAGO + confirmed_at</text>

<!-- Bottom lifeline ends -->
<line x1="50"  y1="578" x2="50"  y2="578"/>
</svg>